<svg xmlns="http://www.w3.org/2000/svg" xmlns:xlink="http://www.w3.org/1999/xlink" width="428" height="926" viewBox="0 0 428 926">
  <defs>
    <clipPath id="clip-path">
      <rect id="Rectangle_490" data-name="Rectangle 490" width="428" height="926" fill="rgba(13,43,81,0.18)"/>
    </clipPath>
  </defs>
  <g id="Group_1312" data-name="Group 1312" clip-path="url(#clip-path)">
    <rect id="Rectangle_489" data-name="Rectangle 489" width="428" height="926" fill="rgba(13,43,81,0.18)"/>
    <g id="Group_1311" data-name="Group 1311" opacity="0.7">
      <g id="Group_1310" data-name="Group 1310">
        <g id="Group_1309" data-name="Group 1309" opacity="0.5">
          <path id="Path_2605" data-name="Path 2605" d="M-25.694,124.987c47.676,38.558,112.405,29.822,149.292-15.7s30.92-120.75-15.715-149.148S-7.432-79.062-41.41-24.164-73.371,86.43-25.694,124.987Z" fill="rgba(13,43,81,0.18)"/>
          <path id="Path_2606" data-name="Path 2606" d="M200.168,797.984c19.687,15.922,46.427,12.309,61.669-6.5s12.782-49.884-6.477-61.612-47.63-16.183-61.667,6.5S180.479,782.061,200.168,797.984Z" fill="rgba(13,43,81,0.18)"/>
          <path id="Path_2607" data-name="Path 2607" d="M288.167,739.406c-7.475,2.795-10.227,10.8-7.324,18.993s12.238,11.6,19.026,7.262,10.137-11.222,7.326-18.99S295.642,736.611,288.167,739.406Z" fill="rgba(13,43,81,0.18)"/>
          <path id="Path_2608" data-name="Path 2608" d="M238.527,346.589a28.355,28.355,0,0,0,40.5-4.266c10.01-12.354,8.4-32.762-4.252-40.463s-31.279-10.629-40.5,4.267S225.6,336.132,238.527,346.589Z" fill="rgba(13,43,81,0.18)"/>
          <path id="Path_2609" data-name="Path 2609" d="M296.341,349.419a12.888,12.888,0,0,0,18.412-1.943c4.548-5.617,3.821-14.889-1.934-18.392s-14.217-4.826-18.406,1.946S290.464,344.666,296.341,349.419Z" fill="rgba(13,43,81,0.18)"/>
          <path id="Path_2610" data-name="Path 2610" d="M131.072,628.014c47.3,43.26,114.659,33.75,162.785-16.887s38.462-129.85-17.363-162.581-117.379-31.558-162.785,16.886S83.777,584.756,131.072,628.014Z" fill="rgba(13,43,81,0.18)"/>
          <path id="Path_2611" data-name="Path 2611" d="M280.384,658.792c5.878,5.377,14.253,4.194,20.235-2.1s4.781-16.142-2.158-20.211-14.59-3.921-20.233,2.1S274.507,653.415,280.384,658.792Z" fill="rgba(13,43,81,0.18)"/>
          <path id="Path_2612" data-name="Path 2612" d="M302.658,623.015c2.939,2.688,7.126,2.1,10.113-1.053a6.5,6.5,0,0,0-1.073-10.1c-3.466-2.034-7.3-1.961-10.121,1.049S299.718,620.323,302.658,623.015Z" fill="rgba(13,43,81,0.18)"/>
          <path id="Path_2613" data-name="Path 2613" d="M-16.145,246.075c5.878,5.377,14.253,4.194,20.234-2.1s4.782-16.142-2.157-20.21-14.59-3.922-20.234,2.1S-22.023,240.7-16.145,246.075Z" fill="rgba(13,43,81,0.18)"/>
          <path id="Path_2614" data-name="Path 2614" d="M-138.771,973.821c70.043,56.649,181.836,43.519,253.285-26.4s61.513-194.561-26.892-253-190.769-50.753-253.284,26.4S-208.816,917.171-138.771,973.821Z" fill="rgba(13,43,81,0.18)"/>
          <path id="Path_2615" data-name="Path 2615" d="M468.447-76.574a81.247,81.247,0,0,1,20.308,24.38,81.258,81.258,0,0,1,9.422,30.3,81.252,81.252,0,0,1-2.9,31.6A81.24,81.24,0,0,1,480.5,37.779c-28.28,34.9-65.615,72.645-88.943,109.768s-82.964,44.51-114.461,12.037S233.505,84.152,265.043,45.231L353.987-64.536C384.976-102.781,433.513-104.827,468.447-76.574Z" fill="rgba(13,43,81,0.18)"/>
          <path id="Path_2616" data-name="Path 2616" d="M214.419,120.416C271.37,154.668,341.856,157.7,383.6,101.1S417.275-38.614,365.583-84.545,242.014-108.692,196.4-65.229,157.469,86.163,214.419,120.416Z" fill="rgba(13,43,81,0.18)"/>
          <path id="Path_2617" data-name="Path 2617" d="M419.6,490.817c70.859,62.963,70.926,166.311,24.46,254.8S318.713,915.578,263.686,990.188s-156.744,93.792-232.146,26.8S-55.626,830.21,7.08,762.181s113.292-170.6,180.373-244.568S348.739,427.854,419.6,490.817Z" fill="rgba(13,43,81,0.18)"/>
          <path id="Path_2618" data-name="Path 2618" d="M154.345,158.007c29.691,26.381,70.01,20.393,92.991-10.768s19.276-82.647-9.77-102.079-71.82-26.809-92.989,10.769S124.651,131.626,154.345,158.007Z" fill="rgba(13,43,81,0.18)"/>
          <path id="Path_2619" data-name="Path 2619" d="M258.02,536.935c16.294,16.374,39.5,12.776,56.085-6.392s13.252-49.154-5.982-61.542-40.446-11.95-56.085,6.387S241.723,520.559,258.02,536.935Z" fill="rgba(13,43,81,0.18)"/>
          <path id="Path_2620" data-name="Path 2620" d="M85.359,382.624c16.295,16.375,39.5,12.777,56.086-6.392s13.252-49.153-5.982-61.542-40.446-11.949-56.085,6.388S69.063,366.249,85.359,382.624Z" fill="rgba(13,43,81,0.18)"/>
          <path id="Path_2621" data-name="Path 2621" d="M235.452,678.755c5.351,5.377,12.971,4.2,18.419-2.1s4.352-16.143-1.963-20.212-13.28-3.921-18.417,2.1S230.106,673.377,235.452,678.755Z" fill="rgba(13,43,81,0.18)"/>
          <path id="Path_2622" data-name="Path 2622" d="M76.1,403.69c-3.681,6.863-1.043,14.8,5.7,19.343A11.436,11.436,0,0,0,99.4,416.725c2.314-7.628.736-15.078-5.7-19.343S79.78,396.828,76.1,403.69Z" fill="rgba(13,43,81,0.18)"/>
          <path id="Path_2623" data-name="Path 2623" d="M299.855,266.263c51.693,45.932,51.741,121.342,17.828,185.9S226.222,576.176,186.074,630.613,71.711,699.057,16.707,650.183s-63.58-136.263-17.828-185.9S81.543,339.8,130.491,285.835,248.163,220.332,299.855,266.263Z" fill="rgba(13,43,81,0.18)"/>
          <path id="Path_2624" data-name="Path 2624" d="M20.524,250.82c22.011,22.118,53.362,17.257,75.762-8.63s17.9-66.4-8.085-83.134-54.628-16.137-75.758,8.634S-1.487,228.7,20.524,250.82Z" fill="rgba(13,43,81,0.18)"/>
          <path id="Path_2625" data-name="Path 2625" d="M311.425,943.273c60.318,60.607,146.227,47.292,207.6-23.656s49.055-181.942-22.142-227.8-149.7-44.218-207.6,23.658S251.111,882.665,311.425,943.273Z" fill="rgba(13,43,81,0.18)"/>
          <path id="Path_2626" data-name="Path 2626" d="M267.974,187.544c9.283,5.586,20.783,6.061,27.6-3.184s5.512-22.81-2.911-30.294-20.158-3.92-27.6,3.18S258.688,181.963,267.974,187.544Z" fill="rgba(13,43,81,0.18)"/>
        </g>
      </g>
      <path id="Path_2627" data-name="Path 2627" d="M428,0H0V926H428Z" fill="rgba(13,43,81,0.18)" opacity="0.52"/>
    </g>
  </g>
</svg>
