<svg xmlns="http://www.w3.org/2000/svg" width="166.153" height="122.559" viewBox="0 0 166.153 122.559">
  <g id="Group_733" data-name="Group 733" transform="translate(0.009 -0.004)">
    <path id="Path_387" data-name="Path 387" d="M61.83,433.31c2.624,10.14,8.173,18.9,16.943,23.154,18.231,8.83,59.347,4.276,90.033-.952a72.307,72.307,0,0,0,39.96-20.666Z" transform="translate(-60.049 -374.547)" fill="#f05a89" opacity="0.1"/>
    <path id="Path_388" data-name="Path 388" d="M246.577,55.324H229.74a1.323,1.323,0,1,1,0-2.633h2.912a1.323,1.323,0,1,1,0-2.633h-2.078a1.323,1.323,0,1,1,0-2.633h8.788a25.183,25.183,0,0,0-6.856-1.71c-23.963-2.784-32.518-.943-35.536.95a35.423,35.423,0,0,1-12.316,4.885c-14.784,2.76-42.433,6.08-67.493-1.057C104.705,46.94,95.448,52.938,89.9,62.964H249.5A21.666,21.666,0,0,0,247.524,55a1.536,1.536,0,0,1-.947.32Z" transform="translate(-83.879 -44.29)" fill="#f05a89" opacity="0.1"/>
    <path id="Path_389" data-name="Path 389" d="M50.343,293.19A60.8,60.8,0,0,0,51,310.88l147.824,4.892A62.716,62.716,0,0,0,209.091,301.6Zm58.466,12.62H105.9a1.323,1.323,0,1,1,0,2.633H89.062a1.323,1.323,0,1,1,0-2.633h2.912a1.323,1.323,0,1,1,0-2.633h-2.08a1.323,1.323,0,1,1,0-2.633h16.837a1.323,1.323,0,1,1,0,2.633h2.078a1.323,1.323,0,1,1,0,2.633Z" transform="translate(-49.99 -255.591)" fill="#f05a89" opacity="0.1"/>
    <path id="Path_390" data-name="Path 390" d="M217.773,168.5,56.385,172.05a53.546,53.546,0,0,0-3.865,15.079H214.946a57.287,57.287,0,0,0,2.344-9.611A41.143,41.143,0,0,0,217.773,168.5ZM85.288,180.138H82.377a1.324,1.324,0,1,1,0,2.634H65.54a1.324,1.324,0,1,1,0-2.634h2.912a1.323,1.323,0,1,1,0-2.633h-2.08a1.323,1.323,0,1,1,0-2.633H83.209a1.323,1.323,0,1,1,0,2.633h2.078a1.323,1.323,0,1,1,0,2.633Z" transform="translate(-52.145 -149.735)" fill="#f05a89" opacity="0.1"/>
    <ellipse id="Ellipse_95" data-name="Ellipse 95" cx="67.514" cy="6.211" rx="67.514" ry="6.211" transform="translate(14.81 105.56)" fill="#f05a89" opacity="0.1"/>
    <ellipse id="Ellipse_98" data-name="Ellipse 98" cx="1.359" cy="0.921" rx="1.359" ry="0.921" transform="translate(121.334 63.086)" fill="#575a89"/>
    <circle id="Ellipse_99" data-name="Ellipse 99" cx="46.597" cy="46.597" r="46.597" transform="translate(31.786 22.1)" fill="#f05a89"/>
    <path id="Path_436" data-name="Path 436" d="M456.009,541.572c0,7.356-11.564.628-23.962.628s-24.937,6.45-24.937-.906c0-4.195,4-10.028,9.73-14.265h0c4.32-3.193,9.625-5.48,14.953-5.48,5.48,0,10.848,2.476,15.13,5.874C452.328,531.709,456.009,537.467,456.009,541.572Z" transform="translate(-353.176 -449.459)" fill="#444053"/>
    <path id="Path_437" data-name="Path 437" d="M501.612,527.4c-6.59-.992-18.509-2.2-30.082-.394,4.32-3.193,9.625-5.48,14.953-5.48C491.962,521.53,497.33,524.006,501.612,527.4Z" transform="translate(-407.866 -449.442)" fill="#f6f8fb"/>
    <path id="Path_438" data-name="Path 438" d="M328.858,281.31s-14.037,8.974-13.922,23.01S328.858,281.31,328.858,281.31Z" transform="translate(-274.924 -245.506)" opacity="0.05"/>
    <path id="Path_439" data-name="Path 439" d="M813.617,113.427s-12.718-.766-11.218,8.146a2.166,2.166,0,0,0,1.13,2.29s.023-.66,1.3-.437a5.891,5.891,0,0,0,1.382.066,2.87,2.87,0,0,0,1.689-.7h0s3.575-1.476,4.966-7.32c0,0,1.029-1.275.988-1.6l-2.146.915a3.835,3.835,0,0,1,.151,2.835s-.069-2.778-.482-2.719c-.083.014-1.115.536-1.115.536s1.261,2.7.3,4.657c0,0,.361-3.323-.7-4.462l-1.51.882s1.474,2.785.474,5.058c0,0,.257-3.486-.792-4.844l-1.37,1.068s1.385,2.746.541,4.631c0,0-.11-4.059-.837-4.365a8.382,8.382,0,0,0-1.381,1.491s.949,1.992.361,3.044c0,0-.361-2.7-.657-2.719a9,9,0,0,0-1.319,3.021,6.531,6.531,0,0,1,1.029-3.192,3.583,3.583,0,0,0-1.826.947s.186-1.267,2.115-1.378a8.259,8.259,0,0,1,1.251-1.441,7.836,7.836,0,0,0-3.093.356s1.027-1.195,3.445-.653l1.359-1.1a11.144,11.144,0,0,0-3.61.036s1.237-1.057,3.974-.287l1.473-.881a13.5,13.5,0,0,0-3.45-.3,5.289,5.289,0,0,1,3.88.062l1.057-.473s-1.584-.311-2.048-.359-.488-.178-.488-.178a5.49,5.49,0,0,1,2.98.346A13.424,13.424,0,0,0,813.617,113.427Z" transform="translate(-688.655 -102.967)" fill="#f05a89"/>
    <path id="Path_440" data-name="Path 440" d="M762.2,87.248s-5.74-.347-5.069,3.679a.982.982,0,0,0,.51,1.035s.009-.3.589-.2a2.727,2.727,0,0,0,.624.03,1.313,1.313,0,0,0,.764-.316h0s1.615-.668,2.243-3.308c0,0,.465-.575.453-.724l-.97.414a1.735,1.735,0,0,1,.071,1.281s-.032-1.255-.218-1.225c-.038,0-.5.242-.5.242a2.864,2.864,0,0,1,.141,2.1s.163-1.5-.317-2.016l-.683.4a3.018,3.018,0,0,1,.214,2.287,4.3,4.3,0,0,0-.358-2.189l-.619.482a2.952,2.952,0,0,1,.245,2.092s-.05-1.834-.379-1.973a3.79,3.79,0,0,0-.624.674s.429.906.163,1.376c0,0-.163-1.222-.3-1.226a4.051,4.051,0,0,0-.6,1.359,2.942,2.942,0,0,1,.464-1.442,1.618,1.618,0,0,0-.825.427s.083-.572.958-.622a3.766,3.766,0,0,1,.565-.651,3.542,3.542,0,0,0-1.4.162,1.578,1.578,0,0,1,1.557-.3l.6-.5a5.246,5.246,0,0,0-1.631.015,1.983,1.983,0,0,1,1.8-.128l.665-.4a6.044,6.044,0,0,0-1.559-.134,2.391,2.391,0,0,1,1.754.029l.476-.214s-.716-.14-.924-.162-.222-.08-.222-.08a2.476,2.476,0,0,1,1.344.151A6.08,6.08,0,0,0,762.2,87.248Z" transform="translate(-650.285 -80.749)" fill="#f05a89"/>
    <ellipse id="Ellipse_100" data-name="Ellipse 100" cx="4.068" cy="0.687" rx="4.068" ry="0.687" transform="translate(158.009 108.893)" fill="#f05a89" opacity="0.1"/>
    <ellipse id="Ellipse_101" data-name="Ellipse 101" cx="4.068" cy="0.687" rx="4.068" ry="0.687" transform="translate(2.989 120.326)" fill="#f05a89" opacity="0.1"/>
    <ellipse id="Ellipse_102" data-name="Ellipse 102" cx="4.068" cy="0.687" rx="4.068" ry="0.687" transform="translate(26.602 121.188)" fill="#f05a89" opacity="0.1"/>
    <ellipse id="Ellipse_103" data-name="Ellipse 103" cx="6.074" cy="1.027" rx="6.074" ry="1.027" transform="translate(147.101 115.918)" fill="#f05a89"/>
    <path id="Path_441" data-name="Path 441" d="M1049.192,791.666a1.771,1.771,0,0,0,.58-.875.779.779,0,0,0-.4-.89c-.372-.142-.769.116-1.069.376a1.433,1.433,0,0,1-1.041.5,1.581,1.581,0,0,0,.489-1.482.622.622,0,0,0-.136-.3c-.207-.22-.58-.127-.828.047a3.083,3.083,0,0,0-1.009,2.58,4.85,4.85,0,0,1-.014-1.057,1.092,1.092,0,0,0-.4-.941,1.209,1.209,0,0,0-.6-.142,1.257,1.257,0,0,0-.988.279.971.971,0,0,0,.039,1.208,3.917,3.917,0,0,0,1.021.819,2.267,2.267,0,0,1,.731.7.736.736,0,0,1,.054.125h2.213A6.158,6.158,0,0,0,1049.192,791.666Z" transform="translate(-893.507 -676.398)" fill="#f05a89"/>
    <path id="Path_442" data-name="Path 442" d="M96.482,723.55s.829,1.084-.384,2.719-2.213,3.021-1.813,4.042c0,0,1.829-3.042,3.323-3.086S98.12,725.379,96.482,723.55Z" transform="translate(-87.527 -620.948)" fill="#f05a89"/>
    <path id="Path_443" data-name="Path 443" d="M96.757,723.55a1.359,1.359,0,0,1,.169.34c1.453,1.707,2.226,3.3.831,3.34-1.3.038-2.87,2.364-3.237,2.951a1.4,1.4,0,0,0,.045.134s1.829-3.042,3.323-3.086S98.394,725.379,96.757,723.55Z" transform="translate(-87.802 -620.948)" opacity="0.1"/>
    <path id="Path_444" data-name="Path 444" d="M118.462,731.31c0,.382-.044.692-.1.692s-.1-.3-.1-.692.053-.2.107-.2S118.462,730.927,118.462,731.31Z" transform="translate(-107.964 -627.325)" fill="#ffd037"/>
    <path id="Path_445" data-name="Path 445" d="M119.322,734.252c-.335.183-.627.293-.653.246s.227-.231.562-.414.2-.05.228,0S119.664,734.069,119.322,734.252Z" transform="translate(-108.302 -629.812)" fill="#ffd037"/>
    <path id="Path_446" data-name="Path 446" d="M69.833,723.55s-.829,1.084.382,2.719,2.213,3.021,1.813,4.042c0,0-1.831-3.042-3.323-3.086S68.194,725.379,69.833,723.55Z" transform="translate(-65.261 -620.948)" fill="#f05a89"/>
    <path id="Path_447" data-name="Path 447" d="M69.821,723.55a1.3,1.3,0,0,0-.169.34c-1.453,1.707-2.228,3.3-.831,3.34,1.3.038,2.87,2.364,3.235,2.951a1.4,1.4,0,0,1-.044.134s-1.831-3.042-3.323-3.086S68.182,725.379,69.821,723.55Z" transform="translate(-65.249 -620.948)" opacity="0.1"/>
    <path id="Path_448" data-name="Path 448" d="M70.1,731.31c0,.382.042.692.1.692s.1-.3.1-.692-.053-.2-.106-.2S70.1,730.927,70.1,731.31Z" transform="translate(-67.07 -627.325)" fill="#ffd037"/>
    <path id="Path_449" data-name="Path 449" d="M65.448,734.252c.335.183.628.293.654.246s-.227-.231-.562-.414-.2-.05-.228,0S65.113,734.069,65.448,734.252Z" transform="translate(-62.948 -629.812)" fill="#ffd037"/>
    <path id="Path_450" data-name="Path 450" d="M71.85,760.341a8.505,8.505,0,0,0,3.021-.569c.7-.5,3.569-1.092,3.743-.3s3.486,3.972.867,3.994-6.086-.409-6.783-.834S71.85,760.341,71.85,760.341Z" transform="translate(-68.556 -651.115)" fill="#a8a8a8"/>
    <path id="Path_451" data-name="Path 451" d="M79.525,770.235c-2.619.021-6.086-.409-6.783-.834-.532-.323-.743-1.485-.814-2.021H71.85s.151,1.871.844,2.3,4.164.855,6.783.834c.755,0,1.017-.276,1-.674C80.375,770.079,80.088,770.23,79.525,770.235Z" transform="translate(-68.556 -658.157)" opacity="0.2"/>
    <path id="Path_452" data-name="Path 452" d="M398.056,442.274c.887-.05,5.06-.364,7.711-1.876a3,3,0,0,1,1.4-.412c.843-.024,1.813.328,1.192,2.3-1.006,3.222-6.847,6.847-10.472,6.646a12.012,12.012,0,0,1-10.353-6.537,3.021,3.021,0,0,1-.373-1.554c.032-1,.394-2.246,2.266-.853,2.528,1.88,7.326,2.237,8.288,2.29A3.184,3.184,0,0,0,398.056,442.274Z" transform="translate(-336.24 -379.686)" fill="#444053"/>
    <path id="Path_453" data-name="Path 453" d="M620.056,442.274c.887-.05,5.06-.364,7.711-1.876a3,3,0,0,1,1.4-.412c.843-.024,1.813.328,1.192,2.3-1.006,3.222-6.847,6.847-10.472,6.646a12.012,12.012,0,0,1-10.353-6.537,3.02,3.02,0,0,1-.373-1.554c.032-1,.394-2.246,2.266-.853,2.528,1.88,7.326,2.237,8.288,2.29A3.183,3.183,0,0,0,620.056,442.274Z" transform="translate(-524.708 -379.686)" fill="#444053"/>
  </g>
</svg>
