<svg xmlns="http://www.w3.org/2000/svg" xmlns:xlink="http://www.w3.org/1999/xlink" width="274.255" height="362.775" viewBox="0 0 274.255 362.775">
  <defs>
    <linearGradient id="linear-gradient" x1="0.313" y1="0.076" x2="0.757" y2="0.697" gradientUnits="objectBoundingBox">
      <stop offset="0" stop-color="#add3ef"/>
      <stop offset="1" stop-color="#3776a5"/>
    </linearGradient>
    <linearGradient id="linear-gradient-2" x1="0.271" y1="0.054" x2="0.702" y2="0.903" gradientUnits="objectBoundingBox">
      <stop offset="0" stop-color="#5993be"/>
      <stop offset="1" stop-color="#8fc0e4"/>
    </linearGradient>
    <linearGradient id="linear-gradient-3" x1="0.212" y1="0.125" x2="0.728" y2="0.928" gradientUnits="objectBoundingBox">
      <stop offset="0" stop-color="#497fb1"/>
      <stop offset="1" stop-color="#c7defa"/>
    </linearGradient>
  </defs>
  <g id="Group_1" data-name="Group 1" transform="translate(-1266.417 -92.29)">
    <path id="Path_2" data-name="Path 2" d="M112.582,326.059a149.088,149.088,0,0,0-30.349,90.526V635.064h0l47.457-109.29a131.879,131.879,0,0,0,171.949,6.268,144.94,144.94,0,0,0,50.616-79.86,151.282,151.282,0,0,0-8.191-95.606c-13.017-29.952-35.38-54.316-63.371-69.046A131.01,131.01,0,0,0,190.181,275.6C159.6,282.606,132.218,300.412,112.582,326.059ZM262.93,486.918a9.789,9.789,0,0,0,1.856-1.419,78.806,78.806,0,0,0,8.566-7.853,85.477,85.477,0,0,0,0-115.116q-2.6-2.765-5.426-5.239v-2.743a10.567,10.567,0,0,0-2.864-7.273,9.416,9.416,0,0,0-13.009-.764,72.015,72.015,0,0,0-66.376-.311,9.41,9.41,0,0,0-12.619,1.075,10.566,10.566,0,0,0-2.863,7.273v1.876a79.292,79.292,0,0,0-6.432,6.1,85.485,85.485,0,0,0,0,115.12,73.6,73.6,0,0,0,99.166,9.27Z" transform="translate(1184.184 -180)" fill-rule="evenodd"/>
    <path id="Path_3" data-name="Path 3" d="M112.582,326.057a149.091,149.091,0,0,0-30.349,90.526V635.062h0l47.457-109.29a131.879,131.879,0,0,0,171.949,6.268,144.936,144.936,0,0,0,50.616-79.86,151.282,151.282,0,0,0-8.191-95.606c-13.017-29.951-35.38-54.316-63.371-69.046A131.01,131.01,0,0,0,190.181,275.6C159.6,282.6,132.218,300.41,112.582,326.057ZM262.93,486.916a9.736,9.736,0,0,0,1.856-1.419,78.815,78.815,0,0,0,8.566-7.853,85.477,85.477,0,0,0,0-115.116q-2.6-2.764-5.426-5.239v-2.743a10.567,10.567,0,0,0-2.864-7.273,9.416,9.416,0,0,0-13.009-.764,72.01,72.01,0,0,0-66.376-.31,9.408,9.408,0,0,0-12.619,1.074,10.566,10.566,0,0,0-2.863,7.273v1.876a79.091,79.091,0,0,0-6.432,6.1,85.484,85.484,0,0,0,0,115.119,73.592,73.592,0,0,0,99.166,9.27Z" transform="translate(1184.184 -180)" fill-rule="evenodd" fill="url(#linear-gradient)"/>
    <path id="Path_4" data-name="Path 4" d="M274.684,345.047a91.313,91.313,0,1,0,25.764,63.572A90.13,90.13,0,0,0,274.684,345.047Zm-22.407,63.572c0,22.936-18.333,41.528-40.948,41.528s-40.949-18.592-40.949-41.528,18.334-41.53,40.949-41.53S252.276,385.683,252.276,408.619Z" transform="translate(1192.805 -170.327)" fill-rule="evenodd" fill="url(#linear-gradient-2)"/>
    <path id="Path_5" data-name="Path 5" d="M211.453,318.617l.022-2.444h-.042ZM122.332,409l2.409.022v-.045Zm89.121,90.388-.021,2.442h.042ZM300.573,409l-2.409-.023v.045ZM211.432,321.06a87.742,87.742,0,0,1,61.673,26.1l3.406-3.455a92.53,92.53,0,0,0-65.036-27.532Zm-61.632,26.1a87.749,87.749,0,0,1,61.675-26.1l-.042-4.887a92.531,92.531,0,0,0-65.038,27.53Zm-25.058,61.823A86.922,86.922,0,0,1,149.8,347.158l-3.405-3.455a91.842,91.842,0,0,0-26.47,65.323ZM149.8,470.85a86.923,86.923,0,0,1-25.058-61.824l-4.817-.045a91.843,91.843,0,0,0,26.47,65.324Zm61.675,26.1a87.739,87.739,0,0,1-61.675-26.1l-3.405,3.455a92.525,92.525,0,0,0,65.038,27.529Zm61.629-26.1a87.737,87.737,0,0,1-61.673,26.1l.044,4.886a92.518,92.518,0,0,0,65.036-27.53Zm25.06-61.823a86.921,86.921,0,0,1-25.06,61.823l3.406,3.455a91.847,91.847,0,0,0,26.47-65.323ZM273.1,347.16a86.923,86.923,0,0,1,25.06,61.822l4.817.045a91.844,91.844,0,0,0-26.47-65.321ZM211.453,452.976c23.946,0,43.357-19.687,43.357-43.972h-4.818c0,21.588-17.254,39.086-38.539,39.086ZM168.1,409c0,24.286,19.412,43.972,43.358,43.972v-4.886c-21.286,0-38.54-17.5-38.54-39.086Zm43.358-43.972c-23.946,0-43.358,19.687-43.358,43.972h4.818c0-21.587,17.254-39.086,38.54-39.086ZM254.811,409c0-24.285-19.411-43.972-43.357-43.972v4.886c21.285,0,38.539,17.5,38.539,39.086Z" transform="translate(1192.324 -170.76)" fill="url(#linear-gradient-3)"/>
  </g>
</svg>
