<svg xmlns="http://www.w3.org/2000/svg" width="228.267" height="226.987" viewBox="0 0 228.267 226.987">
  <g id="Group_724" data-name="Group 724" transform="translate(0)">
    <path id="Path_343" data-name="Path 343" d="M874.519,718.042c-1.573,5.458-6.167,9.279-10.959,12.524q-1,.68-2.008,1.328l-.014.008-.095.062-.413.266.075.034s.074.039-.007.006l-.073-.029c-2.784-1.123-5.617-2.328-7.751-4.432-2.213-2.184-3.506-5.61-2.308-8.479a5.481,5.481,0,0,1,.593-1.065c.1-.139.2-.272.311-.4a5.872,5.872,0,0,1,10.085,1.784c.352-3.278-2.351-6.024-4.952-8.049s-5.559-4.23-6.062-7.49a6.353,6.353,0,0,1,1.5-4.982c.036-.043.071-.086.108-.127a8.57,8.57,0,0,1,5.508-2.955c3.99-.415,7.866,1.7,10.765,4.472C873.487,704.98,876.308,711.836,874.519,718.042Z" transform="translate(-658.363 -505.893)" fill="#3776a5"/>
    <path id="Path_344" data-name="Path 344" d="M869.341,717.518a14.57,14.57,0,0,1,1.745,3.849,12.649,12.649,0,0,1,.437,3.736,16.206,16.206,0,0,1-2.123,7.376,23.325,23.325,0,0,1-3.519,4.7q-1,.68-2.008,1.328l-.014.008c-.032.021-.064.041-.095.062l-.413.266s.149.073.068.04l-.073-.029a12.78,12.78,0,0,0-9.465-13.975c.1-.139.2-.272.311-.4a13.479,13.479,0,0,1,2.226.842,13.212,13.212,0,0,1,5.973,5.759,13.507,13.507,0,0,1,1.471,7.412c.114-.1.229-.21.34-.314a23.683,23.683,0,0,0,5.266-6.849,15.077,15.077,0,0,0,1.579-7.134,13.628,13.628,0,0,0-2.732-7.364,31.562,31.562,0,0,0-5.982-6.166,35.863,35.863,0,0,0-7.44-4.594.258.258,0,0,1-.13-.331.219.219,0,0,1,.108-.127.191.191,0,0,1,.166.007c.328.151.654.3.977.464a36.27,36.27,0,0,1,7.493,4.943A29.191,29.191,0,0,1,869.341,717.518Z" transform="translate(-660.686 -512.508)" fill="#fff"/>
    <path id="Path_345" data-name="Path 345" d="M238.868,654.5c2.546,8.834,9.982,15.018,17.738,20.271q1.624,1.1,3.25,2.15c.007,0,.015.01.022.013.052.034.1.067.153.1l.669.431-.122.055s-.12.064.011.01l.119-.047c4.506-1.817,9.092-3.768,12.544-7.173,3.582-3.535,5.675-9.08,3.736-13.724a8.868,8.868,0,0,0-.96-1.723c-.157-.225-.327-.441-.5-.652A9.5,9.5,0,0,0,259.2,657.1c-.57-5.305,3.8-9.749,8.015-13.029s9-6.846,9.812-12.122a10.283,10.283,0,0,0-2.426-8.064c-.058-.069-.115-.139-.174-.206a13.87,13.87,0,0,0-8.915-4.783c-6.458-.671-12.732,2.747-17.423,7.238C240.538,633.36,235.973,644.457,238.868,654.5Z" transform="translate(-236.591 -452.749)" fill="#3776a5"/>
    <path id="Path_346" data-name="Path 346" d="M271.956,653.654a23.578,23.578,0,0,0-2.825,6.23,20.473,20.473,0,0,0-.708,6.047,26.232,26.232,0,0,0,3.436,11.938,37.755,37.755,0,0,0,5.7,7.611q1.624,1.1,3.25,2.15c.007,0,.015.01.022.013.052.034.1.067.153.1l.669.431s-.241.118-.111.065l.119-.047a20.685,20.685,0,0,1,15.32-22.62c-.157-.225-.327-.441-.5-.652a21.827,21.827,0,0,0-3.6,1.363A21.383,21.383,0,0,0,283.2,675.6a21.862,21.862,0,0,0-2.38,12c-.185-.168-.37-.339-.55-.509a38.332,38.332,0,0,1-8.523-11.085,24.4,24.4,0,0,1-2.555-11.546,22.055,22.055,0,0,1,4.422-11.919,51.081,51.081,0,0,1,9.683-9.979,58.046,58.046,0,0,1,12.043-7.435.417.417,0,0,0,.21-.536.355.355,0,0,0-.174-.206.309.309,0,0,0-.268.011c-.531.245-1.059.492-1.582.751a58.7,58.7,0,0,0-12.128,8A47.248,47.248,0,0,0,271.956,653.654Z" transform="translate(-257.54 -463.455)" fill="#fff"/>
    <path id="Path_347" data-name="Path 347" d="M544.375,139.414H543.13V105.3a19.744,19.744,0,0,0-19.744-19.744H451.11A19.744,19.744,0,0,0,431.366,105.3V292.452A19.744,19.744,0,0,0,451.11,312.2h72.275a19.744,19.744,0,0,0,19.744-19.744V163.7h1.245Z" transform="translate(-369.748 -85.555)" fill="#2f2e41"/>
    <path id="Path_348" data-name="Path 348" d="M550.975,116.8V303.673a14.746,14.746,0,0,1-14.745,14.745H463.607a14.746,14.746,0,0,1-14.745-14.745V116.8a14.746,14.746,0,0,1,14.745-14.745h8.81A7.009,7.009,0,0,0,478.9,111.7H520.31a7.009,7.009,0,0,0,6.487-9.651h9.433A14.746,14.746,0,0,1,550.975,116.8Z" transform="translate(-381.795 -96.913)" fill="#fff"/>
    <path id="Path_349" data-name="Path 349" d="M572.276,304.321c-3.857-1.772-6.393-6.839-6.249-11.835a15.221,15.221,0,0,1,6.4-12.053,12.677,12.677,0,0,1,12-.906c3.892,1.657,9.118,2.108,11.457,6.226,1.8,3.165,1.15,10.224-.123,13.743-1.1,3.041-3.79,4.755-6.414,5.714a21.567,21.567,0,0,1-17.843-1.437Z" transform="translate(-462.469 -218.371)" fill="#2f2e41"/>
    <path id="Path_350" data-name="Path 350" d="M568.845,511.121l-1.629-6.639-.115-.477a2.138,2.138,0,0,0-1.52-1.545l-1.626-.436-1.442-.389L559.4,500.8h0l-6.287-1.688-5.565-1.5-1.345-.361-3.7-.993-2.3-.617-3.566-.956-.286-.078a2.149,2.149,0,0,0-2.519,1.211q-.234.537-.458,1.093a78.087,78.087,0,0,0-4.117,14.207c-.04.206-.084.414-.121.623h33.01c0,.037,0,.072,0,.109.056-.034.112-.068.168-.109H569Z" transform="translate(-437.073 -367.174)" fill="#2f2e41"/>
    <circle id="Ellipse_81" data-name="Ellipse 81" cx="11.683" cy="11.683" r="11.683" transform="translate(101.257 79.004) rotate(-45)" fill="#ffb8b8"/>
    <path id="Path_351" data-name="Path 351" d="M573.888,433.035a24.359,24.359,0,0,1-4.067,3.622c-.3.215-.61.424-.925.623-.056.04-.112.075-.168.109,0-.037,0-.072,0-.109H541.962a1.609,1.609,0,0,1-.153-.143c-.168-.15-.333-.315-.492-.48a15.363,15.363,0,0,1-2.628-3.622l3.27-9.246,1.258-3.566,1.828-5.163,1.968-5.571a13.322,13.322,0,0,1-.417-1.573v0c-1.865-9.461,7.315-18.641,7.315-18.641q.107-.084.215-.159a13.561,13.561,0,0,1,2.862-1.619c4.3-1.784,8.81-1.065,11.843-.143a23.179,23.179,0,0,1,3.083,1.171c.355.168.548.274.548.274l.3,9.143.411,12.5.221,6.973.277,8.8.118,3.809Z" transform="translate(-443.648 -292.71)" fill="#3776a5"/>
    <path id="Path_352" data-name="Path 352" d="M653.428,434.072l-2.94-14.932-.411-2.086,1.987-8.894-.931-4.73-3.472-17.642a2.155,2.155,0,0,0-1.738-1.7l-4.248-.732-3.946-.682a2.118,2.118,0,0,0-2.046.785,2.09,2.09,0,0,0-.464,1.3,2.174,2.174,0,0,0,.177.853c2.881,6.717,1.8,18.925.763,30.727-.031.346-.062.691-.09,1.037-.218,2.454-.423,4.871-.592,7.2-.056.775-.106,1.545-.153,2.3-.153,2.522-.24,4.936-.221,7.184,0,.209,0,.417.009.623,0,.037,0,.072,0,.109.056-.034.112-.069.168-.109H653.55Z" transform="translate(-510.037 -290.126)" fill="#2f2e41"/>
    <path id="Path_353" data-name="Path 353" d="M543.066,386.315a2.146,2.146,0,0,0-3.4-1.18l-1.081.981-8.2,7.465a2.124,2.124,0,0,0-.536.757c-.763,1.828-2.186,5.269-3.868,9.554-.595,1.52-1.224,3.148-1.868,4.846-1.074,2.831,2.519,7.166,1.442,10.236q-.28.808-.595,1.588c-2.183,5.5-5.285,10.14-6.356,14.917-.047.209-.093.417-.137.623h11.862c.016-.047.031-.093.047-.143.047-.159.1-.318.146-.48.875-2.856,1.853-5.992,2.884-9.286q.215-.682.43-1.373.649-2.069,1.32-4.2c.062-.206.128-.411.193-.617q.224-.719.451-1.439.3-.944.6-1.893c.517-1.644,1.037-3.3,1.557-4.942,2.108-6.692,1.647-13.129,3.236-18.268.025-.075.047-.146.069-.218.682-2.211,1.283-4.173,1.769-5.808A2.138,2.138,0,0,0,543.066,386.315Z" transform="translate(-429.726 -291.531)" fill="#2f2e41"/>
    <path id="Path_354" data-name="Path 354" d="M624.584,278.54a1.933,1.933,0,0,0,2.053-1.146,2.783,2.783,0,0,0-.2-2.444,5.107,5.107,0,0,0-1.8-1.762,5.9,5.9,0,0,0-2.845-.979,3.549,3.549,0,0,0-2.756,1.046,2.558,2.558,0,0,0-.462,2.82,3.772,3.772,0,0,0,2.2,1.6,12.889,12.889,0,0,0,5.412.711Z" transform="translate(-498.5 -214.077)" fill="#2f2e41"/>
    <path id="Path_355" data-name="Path 355" d="M601.7,307.808c-1.82.53-1.721-.451-2.719-2.063s-2.3-3.509-4.189-3.408c-1.552.083-2.632,1.492-3.738,2.584a8.511,8.511,0,0,1-7.538,2.583c-2.705-.594-4.935-3.385-4.341-6.089a5.681,5.681,0,0,1,2.8-3.552,11.43,11.43,0,0,1,4.435-1.3,23.616,23.616,0,0,1,10.189,1.066c2.262.759,4.536,1.987,5.662,4.091s2.112,5.148-.083,6.086Z" transform="translate(-471.457 -230.748)" fill="#2f2e41"/>
    <path id="Path_356" data-name="Path 356" d="M666.757,274.108v10.716c-.209.053-.414.1-.623.146-1.5.333-3.03.554-4.55.738a19.22,19.22,0,0,1-7.075-.09,12.5,12.5,0,0,1-7.536-6.088,19.8,19.8,0,0,1-2.3-9.579c-.019-2.585.318-5.173.14-7.751a10.627,10.627,0,0,0-2.825-7.032c-1.868-1.788-5.026-2.373-7.075-.8a9.7,9.7,0,0,0-.981.912,5.419,5.419,0,0,1-1.38,1.109c-.928.467-2.395.1-2.457-.934l.972-1.816-.1-.125c-1.423-1.962-.828-4.948.931-6.633a8.892,8.892,0,0,1,6.951-2.043,14.087,14.087,0,0,1,11.429,8.218c1.57,3.584,1.554,7.686,2.974,11.335a15.471,15.471,0,0,0,8.52,8.636,15.193,15.193,0,0,0,4.354,1.037C666.343,274.083,666.548,274.1,666.757,274.108Z" transform="translate(-506.593 -195.203)" fill="#2f2e41"/>
    <path id="Path_357" data-name="Path 357" d="M600.237,474.4H600.1v-3.618a2.094,2.094,0,0,0-2.094-2.094h-7.665a2.094,2.094,0,0,0-2.094,2.094v19.849a2.094,2.094,0,0,0,2.094,2.094h7.665a2.094,2.094,0,0,0,2.094-2.094V476.98h.132Z" transform="translate(-477.776 -349.378)" fill="#3f3d56"/>
    <circle id="Ellipse_82" data-name="Ellipse 82" cx="2.378" cy="2.378" r="2.378" transform="translate(114.089 124.539)" fill="#fff"/>
    <path id="Path_358" data-name="Path 358" d="M544.631,462.966c-.056-.069-.118-.134-.181-.2a5.256,5.256,0,0,0-3.967-1.582,5.465,5.465,0,0,0-.7.081l-.131-.131-1.345-1.345-3.052-3.049-1.893-1.893-2.787-2.787-2.093-2.09-.813-.813,1.436-5.621-3.668-1.467-4.78-1.909-.075-.031-.177.486-1.277,3.541-.953,2.631a8.577,8.577,0,0,0,2.127,9.059,8.43,8.43,0,0,0,.863.726l3.251,2.167,1.068.71,2.005,1.339L530.8,463l2.062,1.373,2.616,1.744a4.826,4.826,0,0,0-.009.514,5.235,5.235,0,0,0,1.9,3.824,5.131,5.131,0,0,0,2.367,1.105h0a5.22,5.22,0,0,0,5.976-3.675,4.919,4.919,0,0,0,.2-1.09A5.188,5.188,0,0,0,544.631,462.966Z" transform="translate(-429.18 -329.71)" fill="#ffb8b8"/>
    <path id="Path_359" data-name="Path 359" d="M634.482,453.849l-.48-2.877-.685-4.1-3.911.785-5.085,1.021.4,5.789-.293.2-6.365,4.385-3.715,2.557-3.7,2.551,0,0-.028.019a4.756,4.756,0,0,0-.669-.205,5.243,5.243,0,0,0-4.189.835,5.19,5.19,0,0,0-1.4,1.479,5.071,5.071,0,0,0-.589,1.317,5.356,5.356,0,0,0-.181.9,5.222,5.222,0,0,0,1.268,4.017,5.219,5.219,0,0,0,5.789,1.445h0a4.836,4.836,0,0,0,.682-.318,5.229,5.229,0,0,0,2.276-2.538,5,5,0,0,0,.286-.878,5.076,5.076,0,0,0,.084-.508l1.224-.526,3.142-1.352,10.426-4.484,1.009-.433a8.387,8.387,0,0,0,2.317-1.654,8.571,8.571,0,0,0,2.395-7.43Z" transform="translate(-488.31 -334.351)" fill="#ffb8b8"/>
    <path id="Path_360" data-name="Path 360" d="M542.493,389.78a6.578,6.578,0,0,0-.719-1.722,6.437,6.437,0,0,0-1.616-1.819,6.78,6.78,0,0,0-.866-.564,6.578,6.578,0,0,0-8.928,2.6l-7.589,13.83-.252.455-1.772,3.232.5.308,4.441,2.759,4.914,3.055.346.215,3.3-5.269v0l7.461-11.93a6.624,6.624,0,0,0,.685-1.461c.022-.072.044-.146.065-.218A6.523,6.523,0,0,0,542.493,389.78Z" transform="translate(-431.296 -291.655)" fill="#2f2e41"/>
    <path id="Path_361" data-name="Path 361" d="M654.537,388.063a6.581,6.581,0,0,0-8.24-3.883q-.3.1-.6.234a6.537,6.537,0,0,0-2.775,2.345,6.428,6.428,0,0,0-.679,1.317,6.544,6.544,0,0,0,.149,5.033l1.38,3.067,6.811,15.16.187-.072,5.914-2.283,3.665-1.414,1.432-.551Z" transform="translate(-514.659 -290.947)" fill="#2f2e41"/>
    <path id="Path_362" data-name="Path 362" d="M515.911,621.313H493.489a5.761,5.761,0,1,1,0-11.522h22.422a5.761,5.761,0,1,1,0,11.522Z" transform="translate(-408.558 -446.536)" fill="#3776a5"/>
    <path id="Path_363" data-name="Path 363" d="M658.992,621.313H636.57a5.761,5.761,0,1,1,0-11.522h22.422a5.761,5.761,0,1,1,0,11.522Z" transform="translate(-507.081 -446.536)" fill="#e6e6e6"/>
    <path id="Path_364" data-name="Path 364" d="M461.456,813.068H233.811a.311.311,0,0,1,0-.623H461.456a.311.311,0,1,1,0,.623Z" transform="translate(-233.5 -586.081)" fill="#3f3d56"/>
    <path id="Path_376" data-name="Path 376" d="M461.456,813.068H233.811a.311.311,0,0,1,0-.623H461.456a.311.311,0,1,1,0,.623Z" transform="translate(-233.5 -586.081)" fill="#3f3d56"/>
    <path id="Path_365" data-name="Path 365" d="M556.6,232.79H483.1a5.3,5.3,0,0,0-5.294,5.294v88.13a5.3,5.3,0,0,0,5.294,5.294H556.6a5.3,5.3,0,0,0,5.294-5.294v-88.13A5.3,5.3,0,0,0,556.6,232.79Zm4.671,93.425a4.677,4.677,0,0,1-4.671,4.671H483.1a4.677,4.677,0,0,1-4.671-4.671v-88.13a4.677,4.677,0,0,1,4.671-4.671H556.6a4.677,4.677,0,0,1,4.671,4.671Z" transform="translate(-401.728 -186.939)" fill="#3f3d56"/>
    <path id="Path_366" data-name="Path 366" d="M369.725,232.023a2,2,0,0,1-1.418-.6l-9.467-12.354a2.35,2.35,0,0,0-1.854-.915H302.16a10.432,10.432,0,1,1,0-20.865h68.511a10.433,10.433,0,0,1,2.781,20.488,2.325,2.325,0,0,0-1.691,2.243v9.972a1.993,1.993,0,0,1-1.25,1.87A2.057,2.057,0,0,1,369.725,232.023Z" transform="translate(-273.595 -162.495)" fill="#3776a5"/>
    <circle id="Ellipse_83" data-name="Ellipse 83" cx="4.476" cy="4.476" r="4.476" transform="translate(27.32 40.753)" fill="#fff"/>
    <circle id="Ellipse_84" data-name="Ellipse 84" cx="4.476" cy="4.476" r="4.476" transform="translate(41.218 40.753)" fill="#fff"/>
    <circle id="Ellipse_85" data-name="Ellipse 85" cx="4.476" cy="4.476" r="4.476" transform="translate(55.116 40.753)" fill="#fff"/>
  </g>
</svg>
