<svg xmlns="http://www.w3.org/2000/svg" xmlns:xlink="http://www.w3.org/1999/xlink" width="256.313" height="101.014" viewBox="0 0 256.313 101.014">
  <defs>
    <linearGradient id="linear-gradient" x1="0.313" y1="0.076" x2="0.757" y2="0.697" gradientUnits="objectBoundingBox">
      <stop offset="0" stop-color="#add3ef"/>
      <stop offset="1" stop-color="#3776a5"/>
    </linearGradient>
    <linearGradient id="linear-gradient-2" x1="0.271" y1="0.054" x2="0.702" y2="0.903" gradientUnits="objectBoundingBox">
      <stop offset="0" stop-color="#5993be"/>
      <stop offset="1" stop-color="#8fc0e4"/>
    </linearGradient>
    <linearGradient id="linear-gradient-3" x1="0.212" y1="0.125" x2="0.728" y2="0.928" gradientUnits="objectBoundingBox">
      <stop offset="0" stop-color="#497fb1"/>
      <stop offset="1" stop-color="#c7defa"/>
    </linearGradient>
  </defs>
  <g id="Group_1197" data-name="Group 1197" transform="translate(-95.687 -321.493)">
    <g id="Group_1196" data-name="Group 1196" transform="translate(-1170.028 229.202)">
      <path id="Path_2" data-name="Path 2" d="M89.981,287.263a41.514,41.514,0,0,0-8.451,25.207v60.835h0l13.214-30.432a36.722,36.722,0,0,0,47.879,1.745,40.359,40.359,0,0,0,14.094-22.237,42.124,42.124,0,0,0-2.281-26.621,39.34,39.34,0,0,0-17.646-19.226,36.479,36.479,0,0,0-25.2-3.323A37.955,37.955,0,0,0,89.981,287.263Zm41.864,44.791a2.725,2.725,0,0,0,.517-.4,21.936,21.936,0,0,0,2.385-2.187,23.8,23.8,0,0,0,0-32.054q-.725-.77-1.511-1.459V295.2a2.943,2.943,0,0,0-.8-2.025,2.622,2.622,0,0,0-3.622-.213,20.052,20.052,0,0,0-18.482-.087,2.62,2.62,0,0,0-3.514.3,2.942,2.942,0,0,0-.8,2.025v.522a22.078,22.078,0,0,0-1.791,1.7,23.8,23.8,0,0,0,0,32.055,20.493,20.493,0,0,0,27.613,2.581Z" transform="translate(1184.184 -180.001)" fill-rule="evenodd"/>
      <path id="Path_3" data-name="Path 3" d="M89.981,287.261a41.514,41.514,0,0,0-8.451,25.207V373.3h0l13.214-30.432a36.722,36.722,0,0,0,47.879,1.745,40.358,40.358,0,0,0,14.094-22.237,42.124,42.124,0,0,0-2.281-26.621,39.341,39.341,0,0,0-17.646-19.226,36.48,36.48,0,0,0-25.2-3.323A37.955,37.955,0,0,0,89.981,287.261Zm41.864,44.791a2.71,2.71,0,0,0,.517-.4,21.942,21.942,0,0,0,2.385-2.187,23.8,23.8,0,0,0,0-32.054q-.725-.77-1.511-1.459v-.764a2.943,2.943,0,0,0-.8-2.025,2.622,2.622,0,0,0-3.622-.213,20.051,20.051,0,0,0-18.482-.086,2.62,2.62,0,0,0-3.514.3,2.942,2.942,0,0,0-.8,2.025v.522a22.02,22.02,0,0,0-1.791,1.7,23.8,23.8,0,0,0,0,32.055,20.492,20.492,0,0,0,27.613,2.581Z" transform="translate(1184.184 -180)" fill-rule="evenodd" fill="url(#linear-gradient)"/>
      <path id="Path_4" data-name="Path 4" d="M164.663,325.7a25.426,25.426,0,1,0,7.174,17.7A25.1,25.1,0,0,0,164.663,325.7Zm-6.239,17.7a11.4,11.4,0,1,1-11.4-11.564A11.483,11.483,0,0,1,158.423,343.4Z" transform="translate(1157.041 -210.455)" fill-rule="evenodd" fill="url(#linear-gradient-2)"/>
      <path id="Path_5" data-name="Path 5" d="M145.408,316.854l.006-.681H145.4Zm-24.816,25.168.671.006v-.013Zm24.816,25.169-.006.68h.012Zm24.815-25.169-.671-.006v.013ZM145.4,317.534a24.432,24.432,0,0,1,17.173,7.267l.949-.962a25.765,25.765,0,0,0-18.109-7.666ZM128.241,324.8a24.434,24.434,0,0,1,17.173-7.267l-.012-1.361a25.765,25.765,0,0,0-18.11,7.666Zm-6.978,17.215a24.2,24.2,0,0,1,6.978-17.215l-.948-.962a25.573,25.573,0,0,0-7.371,18.189Zm6.978,17.227a24.2,24.2,0,0,1-6.978-17.215l-1.341-.013a25.574,25.574,0,0,0,7.371,18.189Zm17.173,7.267a24.431,24.431,0,0,1-17.173-7.267l-.948.962a25.763,25.763,0,0,0,18.11,7.665Zm17.161-7.267A24.43,24.43,0,0,1,145.4,366.51l.012,1.36a25.761,25.761,0,0,0,18.109-7.666Zm6.978-17.214a24.2,24.2,0,0,1-6.978,17.214l.949.962a25.575,25.575,0,0,0,7.371-18.189ZM162.575,324.8a24.2,24.2,0,0,1,6.978,17.214l1.341.013a25.574,25.574,0,0,0-7.371-18.189Zm-17.167,29.465a12.159,12.159,0,0,0,12.073-12.244h-1.342a10.808,10.808,0,0,1-10.731,10.884Zm-12.073-12.244a12.159,12.159,0,0,0,12.073,12.244v-1.36a10.808,10.808,0,0,1-10.732-10.884Zm12.073-12.244a12.16,12.16,0,0,0-12.073,12.244h1.342a10.808,10.808,0,0,1,10.732-10.884Zm12.073,12.244a12.159,12.159,0,0,0-12.073-12.244v1.36a10.808,10.808,0,0,1,10.731,10.884Z" transform="translate(1158.555 -209.091)" fill="url(#linear-gradient-3)"/>
    </g>
    <text id="Ping_" data-name="Ping " transform="translate(275 392)" fill="#3776a5" font-size="60" font-family="SegoeUI, Segoe UI"><tspan x="-76.025" y="0">PING </tspan></text>
  </g>
</svg>
