<svg xmlns="http://www.w3.org/2000/svg" xmlns:xlink="http://www.w3.org/1999/xlink" width="113.574" height="86.09" viewBox="0 0 113.574 86.09">
  <defs>
    <linearGradient id="linear-gradient" x1="0.5" y1="1" x2="0.5" gradientUnits="objectBoundingBox">
      <stop offset="0" stop-color="gray" stop-opacity="0.251"/>
      <stop offset="0.54" stop-color="gray" stop-opacity="0.122"/>
      <stop offset="1" stop-color="gray" stop-opacity="0.102"/>
    </linearGradient>
    <linearGradient id="linear-gradient-2" y1="1" y2="0" xlink:href="#linear-gradient"/>
    <linearGradient id="linear-gradient-3" x1="0" y1="0.5" x2="1" y2="0.5" xlink:href="#linear-gradient"/>
    <linearGradient id="linear-gradient-4" x1="2.581" y1="1" x2="2.581" y2="0" xlink:href="#linear-gradient"/>
    <linearGradient id="linear-gradient-5" y1="1" y2="0" xlink:href="#linear-gradient"/>
    <linearGradient id="linear-gradient-6" x1="-25.357" y1="1.001" x2="-25.357" y2="0" xlink:href="#linear-gradient"/>
  </defs>
  <g id="Group_1036" data-name="Group 1036" transform="translate(0 0.006)">
    <path id="Path_2297" data-name="Path 2297" d="M149.986,70.59c-3.993,5.479-2.675,13.3-.367,19.531.773,2.086,1.651,4.292,1.25,6.561-.49,2.774-2.791,4.853-5.182,5.985a13.732,13.732,0,0,1-13.411-.866c-3.366-2.244-5.735-5.973-9.166-8.109-5.742-3.575-13.2-1.978-19.588.752C99,96.374,94.048,98.86,89.642,97.077c-3.1-1.255-5.188-4.448-6.287-7.862-.53-1.648-.9-3.437-1.958-4.727a7.229,7.229,0,0,0-2.312-1.748c-7.791-4.08-17.813-1.53-25.367-6.082-5.1-3.074-8.274-9.04-9.592-15.311s-.992-12.892-.467-19.4c.373-4.624.964-9.566,3.744-13.2a13.244,13.244,0,0,1,12.276-4.767c4.407.6,8.358,3.05,11.815,5.972,4.323,3.645,8.3,8.222,13.678,9.606,3.663.942,7.554.275,11.361-.019a106.712,106.712,0,0,1,19.009.714c6.034.612,12.11,1.3,17.824,3.3,4.044,1.42,7.25,4.1,11.057,5.937,2.481,1.2,5.212,1.473,7.547,3.017,2.882,1.9,5.487,5.272,4.642,9.316C155.814,65.669,152.108,67.682,149.986,70.59Z" transform="translate(-43.2 -23.86)" fill="#3776a5" opacity="0.1"/>
    <g id="Group_1033" data-name="Group 1033" transform="translate(80.551 36.488)" opacity="0.5">
      <path id="Path_2298" data-name="Path 2298" d="M898.19,472.919s.337-9.971,5.731-15.6a15.113,15.113,0,0,0,4.145-8.616,25.423,25.423,0,0,0,.126-4.648" transform="translate(-891.538 -437.687)" fill="none" stroke="#535461" stroke-miterlimit="10" stroke-width="2"/>
      <path id="Path_2299" data-name="Path 2299" d="M993.138,384.46c-.369,1.114-3.456,3.672-3.456,3.672s-.945-3.9-.576-5.01a2.124,2.124,0,0,1,4.032,1.337Z" transform="translate(-973.105 -381.666)" fill="#3776a5"/>
      <path id="Path_2300" data-name="Path 2300" d="M998.9,446.6c-.918.734-4.9,1.206-4.9,1.206s1.326-3.785,2.244-4.518A2.123,2.123,0,1,1,998.9,446.6Z" transform="translate(-977.576 -436.532)" fill="#3776a5"/>
      <path id="Path_2301" data-name="Path 2301" d="M963.745,546.035c-1.161.171-4.835-1.428-4.835-1.428s3.054-2.6,4.214-2.77a2.124,2.124,0,1,1,.621,4.2Z" transform="translate(-946.065 -525.48)" fill="#3776a5"/>
      <path id="Path_2302" data-name="Path 2302" d="M917.7,618.466c-1.115.365-5.008-.594-5.008-.594s2.571-3.077,3.686-3.442a2.124,2.124,0,1,1,1.326,4.036Z" transform="translate(-904.559 -590.595)" fill="#3776a5"/>
      <path id="Path_2303" data-name="Path 2303" d="M949.711,453.19c.542,1.04,4,3.077,4,3.077s.314-4-.228-5.038a2.124,2.124,0,1,0-3.768,1.96Z" transform="translate(-937.593 -443.107)" fill="#3776a5"/>
      <path id="Path_2304" data-name="Path 2304" d="M895.328,533.178c.828.831,4.732,1.741,4.732,1.741s-.9-3.908-1.724-4.74a2.124,2.124,0,1,0-3.009,3Z" transform="translate(-888.412 -514.471)" fill="#3776a5"/>
      <path id="Path_2305" data-name="Path 2305" d="M858.729,624.1c.675.959,4.37,2.516,4.37,2.516s-.222-4-.9-4.963a2.123,2.123,0,1,0-3.468,2.448Z" transform="translate(-855.72 -596.319)" fill="#3776a5"/>
      <path id="Path_2306" data-name="Path 2306" d="M866.4,547.628s-3.06-4.451-2.523-8.639a8.183,8.183,0,0,0-.967-5.085,13.77,13.77,0,0,0-1.44-2.064" transform="translate(-858.563 -516.523)" fill="none" stroke="#535461" stroke-miterlimit="10" stroke-width="2"/>
      <path id="Path_2307" data-name="Path 2307" d="M844.893,498.967a9.125,9.125,0,0,1-.323,2.711s-1.666-1.393-1.862-2a1.15,1.15,0,0,1,2.186-.714Z" transform="translate(-841.663 -486.292)" fill="#3776a5"/>
      <path id="Path_2308" data-name="Path 2308" d="M873.262,520.211a9.148,9.148,0,0,1-1.745,2.1,9.116,9.116,0,0,1-.478-2.688,1.15,1.15,0,1,1,2.223.589Z" transform="translate(-867.132 -504.784)" fill="#3776a5"/>
      <path id="Path_2309" data-name="Path 2309" d="M888.016,571.9a9.118,9.118,0,0,1-2.566.932,9.092,9.092,0,0,1,.944-2.562,1.15,1.15,0,1,1,1.622,1.632Z" transform="translate(-880.097 -550.73)" fill="#3776a5"/>
      <path id="Path_2310" data-name="Path 2310" d="M893.376,618.753A9.122,9.122,0,0,1,891,620.1a9.1,9.1,0,0,1,.5-2.684,1.15,1.15,0,1,1,1.875,1.332Z" transform="translate(-885.081 -592.94)" fill="#3776a5"/>
      <path id="Path_2311" data-name="Path 2311" d="M848.162,542.785a9.092,9.092,0,0,0,2.729.055,9.11,9.11,0,0,0-1.72-2.12,1.149,1.149,0,1,0-1.01,2.065Z" transform="translate(-846.034 -524.392)" fill="#3776a5"/>
      <path id="Path_2312" data-name="Path 2312" d="M850.227,595.153a9.1,9.1,0,0,0,2.621-.764,9.026,9.026,0,0,0-2.275-1.505,1.15,1.15,0,1,0-.346,2.273Z" transform="translate(-847.59 -571.329)" fill="#3776a5"/>
      <path id="Path_2313" data-name="Path 2313" d="M863.834,646.619a9.017,9.017,0,0,0,2.713-.306s-1.385-1.672-1.988-1.873a1.15,1.15,0,1,0-.725,2.183Z" transform="translate(-859.979 -617.587)" fill="#3776a5"/>
      <path id="Path_2314" data-name="Path 2314" d="M844.893,498.967a9.125,9.125,0,0,1-.323,2.711s-1.666-1.393-1.862-2a1.15,1.15,0,0,1,2.186-.714Z" transform="translate(-841.663 -486.292)" fill="#3776a5" opacity="0.5"/>
      <path id="Path_2315" data-name="Path 2315" d="M873.262,520.211a9.148,9.148,0,0,1-1.745,2.1,9.116,9.116,0,0,1-.478-2.688,1.15,1.15,0,1,1,2.223.589Z" transform="translate(-867.132 -504.784)" fill="#3776a5" opacity="0.5"/>
      <path id="Path_2316" data-name="Path 2316" d="M888.016,571.9a9.118,9.118,0,0,1-2.566.932,9.092,9.092,0,0,1,.944-2.562,1.15,1.15,0,1,1,1.622,1.632Z" transform="translate(-880.097 -550.73)" fill="#3776a5" opacity="0.5"/>
      <path id="Path_2317" data-name="Path 2317" d="M893.376,618.753A9.122,9.122,0,0,1,891,620.1a9.1,9.1,0,0,1,.5-2.684,1.15,1.15,0,1,1,1.875,1.332Z" transform="translate(-885.081 -592.94)" fill="#3776a5" opacity="0.5"/>
      <path id="Path_2318" data-name="Path 2318" d="M848.162,542.785a9.092,9.092,0,0,0,2.729.055,9.11,9.11,0,0,0-1.72-2.12,1.149,1.149,0,1,0-1.01,2.065Z" transform="translate(-846.034 -524.392)" fill="#3776a5" opacity="0.5"/>
      <path id="Path_2319" data-name="Path 2319" d="M850.227,595.153a9.1,9.1,0,0,0,2.621-.764,9.026,9.026,0,0,0-2.275-1.505,1.15,1.15,0,1,0-.346,2.273Z" transform="translate(-847.59 -571.329)" fill="#3776a5" opacity="0.5"/>
      <path id="Path_2320" data-name="Path 2320" d="M863.834,646.619a9.017,9.017,0,0,0,2.713-.306s-1.385-1.672-1.988-1.873a1.15,1.15,0,1,0-.725,2.183Z" transform="translate(-859.979 -617.587)" fill="#3776a5" opacity="0.5"/>
      <path id="Path_2321" data-name="Path 2321" d="M791.945,664.252h8.7l2.177-13.272H789.77Z" transform="translate(-789.77 -621.078)" fill="#3776a5"/>
      <path id="Path_2322" data-name="Path 2322" d="M791.436,650.98l2.033,12.4h7.323l-.143.87h-8.7L789.77,650.98Z" transform="translate(-789.77 -621.078)" fill="#3776a5" opacity="0.1"/>
    </g>
    <rect id="Rectangle_390" data-name="Rectangle 390" width="63.847" height="77.035" transform="translate(20.529 4.002)" fill="url(#linear-gradient)"/>
    <rect id="Rectangle_391" data-name="Rectangle 391" width="62.215" height="75.067" transform="translate(21.345 4.987)" fill="#fff"/>
    <rect id="Rectangle_392" data-name="Rectangle 392" width="25.09" height="1.224" transform="translate(45.517 13.453)" fill="#c0bccf"/>
    <rect id="Rectangle_393" data-name="Rectangle 393" width="25.09" height="1.224" transform="translate(45.517 17.328)" fill="#c0bccf"/>
    <rect id="Rectangle_394" data-name="Rectangle 394" width="13.055" height="1.224" transform="translate(51.535 21.204)" fill="#3776a5"/>
    <rect id="Rectangle_395" data-name="Rectangle 395" width="25.09" height="1.224" transform="translate(45.517 38.033)" fill="#c0bccf" opacity="0.5"/>
    <rect id="Rectangle_396" data-name="Rectangle 396" width="25.09" height="1.224" transform="translate(45.517 41.909)" fill="#c0bccf" opacity="0.5"/>
    <path id="Path_2475" data-name="Path 2475" d="M0,0H13.055V1.224H0Z" transform="translate(51.535 45.784)" fill="#3776a5" opacity="0.5"/>
    <rect id="Rectangle_398" data-name="Rectangle 398" width="25.09" height="1.224" transform="translate(45.517 62.613)" fill="#c0bccf" opacity="0.5"/>
    <rect id="Rectangle_399" data-name="Rectangle 399" width="25.09" height="1.224" transform="translate(45.517 66.489)" fill="#c0bccf" opacity="0.5"/>
    <path id="Path_2476" data-name="Path 2476" d="M0,0H13.055V1.224H0Z" transform="translate(51.535 70.365)" fill="#3776a5" opacity="0.5"/>
    <g id="Group_1034" data-name="Group 1034" transform="translate(24.711 35.584)" opacity="0.5">
      <path id="Path_2323" data-name="Path 2323" d="M299.351,379.734a6.9,6.9,0,0,1-1.67,4.513c-.053.062-.108.123-.164.184q-.042.047-.086.092a6.8,6.8,0,0,1-.74.672l-.018.013a6.781,6.781,0,0,1-1.316.808h0a6.833,6.833,0,0,1-.738.3l-.093.03c-.057.019-.116.037-.174.053l-.023.007a6.969,6.969,0,0,1-3.83,0h-.01c-.1-.03-.2-.06-.3-.094l-.087-.031a6.725,6.725,0,0,1-.959-.424l-.019-.01a6.962,6.962,0,0,1-1.359-.962l-.034-.032a6.478,6.478,0,0,1-.593-.612c-.024-.028-.048-.056-.071-.085-.045-.053-.088-.108-.131-.163a6.935,6.935,0,1,1,12.412-4.255Z" transform="translate(-285.48 -372.798)" fill="#c0bccf"/>
      <path id="Path_2324" data-name="Path 2324" d="M310.294,395.525l-.526-.237a2.085,2.085,0,0,0,.01-.241,1.9,1.9,0,0,0,0-.2,4.6,4.6,0,0,0-.635-1.494,4.244,4.244,0,0,1-.415-1.428,6.9,6.9,0,0,0-.224-1.822,3.287,3.287,0,0,0-.93-1.194,4.722,4.722,0,0,0-1.494-.948,2.642,2.642,0,0,0-1.78-.048,3.84,3.84,0,0,0-1.282.926,4.309,4.309,0,0,0-.724.824,3.564,3.564,0,0,0-.408,1.246,19.073,19.073,0,0,0-.251,2.083,2.011,2.011,0,0,1-.6,1.6c-.243.174-.584.272-.7.536a.549.549,0,0,0-.037.25.916.916,0,0,0,.015.211c.007.041.015.081.025.121a8.956,8.956,0,0,0-.359,1.089c-.074.275-.143.546-.2.808h.253l.951.022H301l1.02.023h.005l.951.022H303l.274.019h.09l3.8.088h.02l.253.006h.089l.761.017h0l1.122.026h.008l.845.02h.263l-.045-.885C310.663,395.61,310.294,395.525,310.294,395.525Zm-4.27-.108a3.322,3.322,0,0,1-.8,1.67l-.809-1.1.03-.043L305.22,397a3.318,3.318,0,0,0,.8-1.67.885.885,0,0,1,.064-.11l.018.057A1.079,1.079,0,0,0,306.024,395.417Zm1.236,2.946a.614.614,0,0,0-.007-.114c-.007-.038-.006-.071-.011-.108s-.009-.072-.014-.109-.012-.072-.019-.109-.014-.072-.022-.109a.17.17,0,0,0-.008-.037q-.017-.072-.037-.144c-.013-.048-.021-.077-.034-.115a.158.158,0,0,0-.016-.051c-.006-.016-.017-.055-.027-.083l-.018-.053c-.008-.023-.016-.048-.026-.071-.015-.043-.032-.085-.048-.128s-.034-.085-.051-.126c-.035-.086-.072-.17-.11-.256-.148-.33-.314-.656-.467-.978a5.2,5.2,0,0,1-.218-.518l-.019.026a1.077,1.077,0,0,0-.083.138,3.322,3.322,0,0,1-.8,1.67l-.809-1.1L303.7,397a.825.825,0,0,0-.284.471c-.022.066-.044.14-.064.216-.014.052-.028.1-.04.16-.007.028-.013.055-.019.084l-.018.087v.013c-.012.059-.024.12-.036.183s-.024.134-.036.2q-.012.066-.021.132c-.014.085-.027.17-.039.256-.007.05-.014.1-.02.148l-.024.19c.052.156.11.306.17.463a.728.728,0,0,1,.066.262,7.433,7.433,0,0,0,3.83,0,.035.035,0,0,1,0-.009,1.068,1.068,0,0,1-.025-.26h0a6.726,6.726,0,0,1,.1-.73,2.5,2.5,0,0,0,.019-.359v-.043c0-.039,0-.073-.005-.107Zm0,0a.614.614,0,0,0-.007-.114c-.007-.038-.006-.071-.011-.108s-.009-.072-.014-.109-.012-.072-.019-.109-.014-.072-.022-.109a.17.17,0,0,0-.008-.037q-.017-.072-.037-.144c-.013-.048-.021-.077-.034-.115a.158.158,0,0,0-.016-.051c-.006-.016-.017-.055-.027-.083l-.018-.053c-.008-.023-.016-.048-.026-.071-.015-.043-.032-.085-.048-.128s-.034-.085-.051-.126c-.035-.086-.072-.17-.11-.256-.148-.33-.314-.656-.467-.978a5.2,5.2,0,0,1-.218-.518l-.019.026a1.077,1.077,0,0,0-.083.138,3.322,3.322,0,0,1-.8,1.67l-.809-1.1L303.7,397a.825.825,0,0,0-.284.471c-.022.066-.044.14-.064.216-.014.052-.028.1-.04.16-.007.028-.013.055-.019.084l-.018.087v.013c-.012.059-.024.12-.036.183s-.024.134-.036.2q-.012.066-.021.132c-.014.085-.027.17-.039.256-.007.05-.014.1-.02.148l-.024.19c.052.156.11.306.17.463a.728.728,0,0,1,.066.262,7.433,7.433,0,0,0,3.83,0,.035.035,0,0,1,0-.009,1.068,1.068,0,0,1-.025-.26h0a6.726,6.726,0,0,1,.1-.73,2.5,2.5,0,0,0,.019-.359v-.043c0-.039,0-.073-.005-.107Zm0,0a.614.614,0,0,0-.007-.114c-.007-.038-.006-.071-.011-.108s-.009-.072-.014-.109-.012-.072-.019-.109-.014-.072-.022-.109a.17.17,0,0,0-.008-.037q-.017-.072-.037-.144c-.013-.048-.021-.077-.034-.115a.158.158,0,0,0-.016-.051c-.006-.016-.017-.055-.027-.083l-.018-.053c-.008-.023-.016-.048-.026-.071-.015-.043-.032-.085-.048-.128s-.034-.085-.051-.126c-.035-.086-.072-.17-.11-.256-.148-.33-.314-.656-.467-.978a5.2,5.2,0,0,1-.218-.518l-.019.026a1.077,1.077,0,0,0-.083.138,3.322,3.322,0,0,1-.8,1.67l-.809-1.1L303.7,397a.825.825,0,0,0-.284.471c-.022.066-.044.14-.064.216-.014.052-.028.1-.04.16-.007.028-.013.055-.019.084l-.018.087v.013c-.012.059-.024.12-.036.183s-.024.134-.036.2q-.012.066-.021.132c-.014.085-.027.17-.039.256-.007.05-.014.1-.02.148l-.024.19c.052.156.11.306.17.463a.728.728,0,0,1,.066.262,7.433,7.433,0,0,0,3.83,0,.035.035,0,0,1,0-.009,1.068,1.068,0,0,1-.025-.26h0a6.726,6.726,0,0,1,.1-.73,2.5,2.5,0,0,0,.019-.359v-.043c0-.039,0-.073-.005-.107Zm0,0a.614.614,0,0,0-.007-.114c-.007-.038-.006-.071-.011-.108s-.009-.072-.014-.109-.012-.072-.019-.109-.014-.072-.022-.109a.17.17,0,0,0-.008-.037q-.017-.072-.037-.144c-.013-.048-.021-.077-.034-.115a.158.158,0,0,0-.016-.051c-.006-.016-.017-.055-.027-.083l-.018-.053c-.008-.023-.016-.048-.026-.071-.015-.043-.032-.085-.048-.128s-.034-.085-.051-.126c-.035-.086-.072-.17-.11-.256-.148-.33-.314-.656-.467-.978a5.2,5.2,0,0,1-.218-.518l-.019.026a1.077,1.077,0,0,0-.083.138,3.322,3.322,0,0,1-.8,1.67l-.809-1.1L303.7,397a.825.825,0,0,0-.284.471c-.022.066-.044.14-.064.216-.014.052-.028.1-.04.16-.007.028-.013.055-.019.084l-.018.087v.013c-.012.059-.024.12-.036.183s-.024.134-.036.2q-.012.066-.021.132c-.014.085-.027.17-.039.256-.007.05-.014.1-.02.148l-.024.19c.052.156.11.306.17.463a.728.728,0,0,1,.066.262,7.433,7.433,0,0,0,3.83,0,.035.035,0,0,1,0-.009,1.068,1.068,0,0,1-.025-.26h0a6.726,6.726,0,0,1,.1-.73,2.5,2.5,0,0,0,.019-.359v-.043c0-.039,0-.073-.005-.107Z" transform="translate(-298.321 -386.25)" fill="url(#linear-gradient-2)"/>
      <rect id="Rectangle_401" data-name="Rectangle 401" width="4.692" height="3.162" transform="translate(4.284 4.999)" fill="#493545"/>
      <path id="Path_2325" data-name="Path 2325" d="M332.506,430.083l-1.963,2.766-2.052-.178s-2.677.177-.892-1.874a4.4,4.4,0,0,0,1.2-2.395,1.854,1.854,0,0,0-.127-1l2.231-.267a1.664,1.664,0,0,0-.037.931A4.055,4.055,0,0,0,332.506,430.083Z" transform="translate(-322.751 -421.598)" fill="#c77485"/>
      <path id="Path_2326" data-name="Path 2326" d="M345.684,428.05a2.23,2.23,0,0,1-2.066.333,1.855,1.855,0,0,0-.128-1l2.231-.267A1.665,1.665,0,0,0,345.684,428.05Z" transform="translate(-337.573 -421.579)" opacity="0.1"/>
      <circle id="Ellipse_189" data-name="Ellipse 189" cx="2.231" cy="2.231" r="2.231" transform="translate(4.535 2.373)" fill="#c77485"/>
      <path id="Path_2327" data-name="Path 2327" d="M327.248,449.575l-.052-.2-.045-.18-.066-.265-.012-.049-.01-.041s.053-.16-.3-.108l-.065.011c-.055.011-.119.027-.193.047l-.066.02-.088.027h0a1.913,1.913,0,0,0-.74.447,1.667,1.667,0,0,0-.248.3l-.018.028a.961.961,0,0,0-.064.118,3.638,3.638,0,0,1-.8,1.785l-.784-1.133-.015-.022-.187-.271-.066-.088-.022-.031-.408-.548-.1-.137-.034-.046-.05-.066-.117-.156-.459.268-.612.357-.357,2.32v.064l.011.192.074,1.261v.017l-.131.522.019.01a6.728,6.728,0,0,0,.959.424l.087.031c.1.034.2.064.3.094a.366.366,0,0,1,.008.046v-.044a6.969,6.969,0,0,0,3.83,0l.023-.007c.058-.016.117-.034.174-.053l.093-.03a6.838,6.838,0,0,0,.738-.3l.086-1.826.061-1.317v-.075Z" transform="translate(-317.575 -440.975)" opacity="0.1"/>
      <path id="Path_2328" data-name="Path 2328" d="M326.711,453.762a.7.7,0,0,0-.007-.122c-.007-.041-.006-.076-.011-.115s-.009-.077-.014-.116-.012-.078-.019-.116-.014-.077-.022-.116a.174.174,0,0,0-.008-.039c-.011-.051-.023-.1-.037-.154s-.021-.083-.034-.123a.174.174,0,0,0-.016-.054c-.006-.017-.017-.059-.027-.089l-.018-.057c-.008-.025-.016-.051-.026-.076-.015-.046-.032-.091-.048-.137s-.034-.091-.051-.136c-.035-.092-.072-.183-.11-.273-.148-.353-.314-.7-.467-1.045a5.782,5.782,0,0,1-.218-.554l-.019.028a1.171,1.171,0,0,0-.083.147,3.643,3.643,0,0,1-.8,1.785l-.809-1.178-.708,1.088a.889.889,0,0,0-.284.5c-.022.071-.044.149-.064.232-.014.055-.028.113-.04.171-.007.03-.013.059-.019.09l-.018.093v.014c-.012.063-.024.129-.036.195s-.024.143-.036.215q-.012.07-.021.141c-.014.091-.026.183-.039.273-.007.053-.014.1-.02.158l-.024.2c.052.167.11.333.17.495a.822.822,0,0,1,.066.28,6.969,6.969,0,0,0,3.83,0,.036.036,0,0,1,0-.01,1.213,1.213,0,0,1-.025-.278h0a7.651,7.651,0,0,1,.1-.78,2.865,2.865,0,0,0,.019-.384v-.046C326.713,453.836,326.712,453.8,326.711,453.762Zm0,0a.7.7,0,0,0-.007-.122c-.007-.041-.006-.076-.011-.115s-.009-.077-.014-.116-.012-.078-.019-.116-.014-.077-.022-.116a.174.174,0,0,0-.008-.039c-.011-.051-.023-.1-.037-.154s-.021-.083-.034-.123a.174.174,0,0,0-.016-.054c-.006-.017-.017-.059-.027-.089l-.018-.057c-.008-.025-.016-.051-.026-.076-.015-.046-.032-.091-.048-.137s-.034-.091-.051-.136c-.035-.092-.072-.183-.11-.273-.148-.353-.314-.7-.467-1.045a5.782,5.782,0,0,1-.218-.554l-.019.028a1.171,1.171,0,0,0-.083.147,3.643,3.643,0,0,1-.8,1.785l-.809-1.178-.708,1.088a.889.889,0,0,0-.284.5c-.022.071-.044.149-.064.232-.014.055-.028.113-.04.171-.007.03-.013.059-.019.09l-.018.093v.014c-.012.063-.024.129-.036.195s-.024.143-.036.215q-.012.07-.021.141c-.014.091-.026.183-.039.273-.007.053-.014.1-.02.158l-.024.2c.052.167.11.333.17.495a.822.822,0,0,1,.066.28,6.969,6.969,0,0,0,3.83,0,.036.036,0,0,1,0-.01,1.213,1.213,0,0,1-.025-.278h0a7.651,7.651,0,0,1,.1-.78,2.865,2.865,0,0,0,.019-.384v-.046C326.713,453.836,326.712,453.8,326.711,453.762Zm0,0a.7.7,0,0,0-.007-.122c-.007-.041-.006-.076-.011-.115s-.009-.077-.014-.116-.012-.078-.019-.116-.014-.077-.022-.116a.174.174,0,0,0-.008-.039c-.011-.051-.023-.1-.037-.154s-.021-.083-.034-.123a.174.174,0,0,0-.016-.054c-.006-.017-.017-.059-.027-.089l-.018-.057c-.008-.025-.016-.051-.026-.076-.015-.046-.032-.091-.048-.137s-.034-.091-.051-.136c-.035-.092-.072-.183-.11-.273-.148-.353-.314-.7-.467-1.045a5.782,5.782,0,0,1-.218-.554l-.019.028a1.171,1.171,0,0,0-.083.147,3.643,3.643,0,0,1-.8,1.785l-.809-1.178-.708,1.088a.889.889,0,0,0-.284.5c-.022.071-.044.149-.064.232-.014.055-.028.113-.04.171-.007.03-.013.059-.019.09l-.018.093v.014c-.012.063-.024.129-.036.195s-.024.143-.036.215q-.012.07-.021.141c-.014.091-.026.183-.039.273-.007.053-.014.1-.02.158l-.024.2c.052.167.11.333.17.495a.822.822,0,0,1,.066.28,6.969,6.969,0,0,0,3.83,0,.036.036,0,0,1,0-.01,1.213,1.213,0,0,1-.025-.278h0a7.651,7.651,0,0,1,.1-.78,2.865,2.865,0,0,0,.019-.384v-.046C326.713,453.836,326.712,453.8,326.711,453.762Zm1.081-1.914-.364-1.453-.062-.249-.017-.068h0l-.089-.355a.062.062,0,0,0,0-.009h0a.082.082,0,0,0-.007-.046c-.013-.027-.047-.054-.125-.061a.63.63,0,0,0-.09,0h0a1.552,1.552,0,0,0-.262.049c-.042.011-.087.023-.135.039l-.088.028h-.008a1.946,1.946,0,0,0-.643.357,1.734,1.734,0,0,0-.326.361l-.019.028a1.175,1.175,0,0,0-.083.147,3.643,3.643,0,0,1-.8,1.785l-.809-1.178-.046-.066-.008-.011-.117-.172-.089-.118-.023-.031-.418-.558h0l-.133-.181v-.006l-.046-.062-.088-.116-.306.178-.765.446-.353,2.3v.024l.01.167.075,1.278v.072l-.115.46a6.725,6.725,0,0,0,.959.424l.087.031c.1.034.2.064.3.094a.365.365,0,0,1,.008.046v-.044a6.97,6.97,0,0,0,3.83,0l.023-.007c.058-.016.117-.034.174-.053l.093-.03a6.833,6.833,0,0,0,.738-.3h0l.085-1.824.061-1.3Zm-5.016,3.522a.354.354,0,0,1,.008.046v-.044Zm3.935-1.607a.7.7,0,0,0-.007-.122c-.007-.041-.006-.076-.011-.115s-.009-.077-.014-.116-.012-.078-.019-.116-.014-.077-.022-.116a.174.174,0,0,0-.008-.039c-.011-.051-.023-.1-.037-.154s-.021-.083-.034-.123a.174.174,0,0,0-.016-.054c-.006-.017-.017-.059-.027-.089l-.018-.057c-.008-.025-.016-.051-.026-.076-.015-.046-.032-.091-.048-.137s-.034-.091-.051-.136c-.035-.092-.072-.183-.11-.273-.148-.353-.314-.7-.467-1.045a5.782,5.782,0,0,1-.218-.554l-.019.028a1.171,1.171,0,0,0-.083.147,3.643,3.643,0,0,1-.8,1.785l-.809-1.178-.708,1.088a.889.889,0,0,0-.284.5c-.022.071-.044.149-.064.232-.014.055-.028.113-.04.171-.007.03-.013.059-.019.09l-.018.093v.014c-.012.063-.024.129-.036.195s-.024.143-.036.215q-.012.07-.021.141c-.014.091-.026.183-.039.273-.007.053-.014.1-.02.158l-.024.2c.052.167.11.333.17.495a.822.822,0,0,1,.066.28,6.969,6.969,0,0,0,3.83,0,.036.036,0,0,1,0-.01,1.213,1.213,0,0,1-.025-.278h0a7.651,7.651,0,0,1,.1-.78,2.865,2.865,0,0,0,.019-.384v-.046C326.713,453.836,326.712,453.8,326.711,453.762Zm0,0a.7.7,0,0,0-.007-.122c-.007-.041-.006-.076-.011-.115s-.009-.077-.014-.116-.012-.078-.019-.116-.014-.077-.022-.116a.174.174,0,0,0-.008-.039c-.011-.051-.023-.1-.037-.154s-.021-.083-.034-.123a.174.174,0,0,0-.016-.054c-.006-.017-.017-.059-.027-.089l-.018-.057c-.008-.025-.016-.051-.026-.076-.015-.046-.032-.091-.048-.137s-.034-.091-.051-.136c-.035-.092-.072-.183-.11-.273-.148-.353-.314-.7-.467-1.045a5.782,5.782,0,0,1-.218-.554l-.019.028a1.171,1.171,0,0,0-.083.147,3.643,3.643,0,0,1-.8,1.785l-.809-1.178-.708,1.088a.889.889,0,0,0-.284.5c-.022.071-.044.149-.064.232-.014.055-.028.113-.04.171-.007.03-.013.059-.019.09l-.018.093v.014c-.012.063-.024.129-.036.195s-.024.143-.036.215q-.012.07-.021.141c-.014.091-.026.183-.039.273-.007.053-.014.1-.02.158l-.024.2c.052.167.11.333.17.495a.822.822,0,0,1,.066.28,6.969,6.969,0,0,0,3.83,0,.036.036,0,0,1,0-.01,1.213,1.213,0,0,1-.025-.278h0a7.651,7.651,0,0,1,.1-.78,2.865,2.865,0,0,0,.019-.384v-.046C326.713,453.836,326.712,453.8,326.711,453.762Zm0,0a.7.7,0,0,0-.007-.122c-.007-.041-.006-.076-.011-.115s-.009-.077-.014-.116-.012-.078-.019-.116-.014-.077-.022-.116a.174.174,0,0,0-.008-.039c-.011-.051-.023-.1-.037-.154s-.021-.083-.034-.123a.174.174,0,0,0-.016-.054c-.006-.017-.017-.059-.027-.089l-.018-.057c-.008-.025-.016-.051-.026-.076-.015-.046-.032-.091-.048-.137s-.034-.091-.051-.136c-.035-.092-.072-.183-.11-.273-.148-.353-.314-.7-.467-1.045a5.782,5.782,0,0,1-.218-.554l-.019.028a1.171,1.171,0,0,0-.083.147,3.643,3.643,0,0,1-.8,1.785l-.809-1.178-.708,1.088a.889.889,0,0,0-.284.5c-.022.071-.044.149-.064.232-.014.055-.028.113-.04.171-.007.03-.013.059-.019.09l-.018.093v.014c-.012.063-.024.129-.036.195s-.024.143-.036.215q-.012.07-.021.141c-.014.091-.026.183-.039.273-.007.053-.014.1-.02.158l-.024.2c.052.167.11.333.17.495a.822.822,0,0,1,.066.28,6.969,6.969,0,0,0,3.83,0,.036.036,0,0,1,0-.01,1.213,1.213,0,0,1-.025-.278h0a7.651,7.651,0,0,1,.1-.78,2.865,2.865,0,0,0,.019-.384v-.046C326.713,453.836,326.712,453.8,326.711,453.762Zm0,0a.7.7,0,0,0-.007-.122c-.007-.041-.006-.076-.011-.115s-.009-.077-.014-.116-.012-.078-.019-.116-.014-.077-.022-.116a.174.174,0,0,0-.008-.039c-.011-.051-.023-.1-.037-.154s-.021-.083-.034-.123a.174.174,0,0,0-.016-.054c-.006-.017-.017-.059-.027-.089l-.018-.057c-.008-.025-.016-.051-.026-.076-.015-.046-.032-.091-.048-.137s-.034-.091-.051-.136c-.035-.092-.072-.183-.11-.273-.148-.353-.314-.7-.467-1.045a5.782,5.782,0,0,1-.218-.554l-.019.028a1.171,1.171,0,0,0-.083.147,3.643,3.643,0,0,1-.8,1.785l-.809-1.178-.708,1.088a.889.889,0,0,0-.284.5c-.022.071-.044.149-.064.232-.014.055-.028.113-.04.171-.007.03-.013.059-.019.09l-.018.093v.014c-.012.063-.024.129-.036.195s-.024.143-.036.215q-.012.07-.021.141c-.014.091-.026.183-.039.273-.007.053-.014.1-.02.158l-.024.2c.052.167.11.333.17.495a.822.822,0,0,1,.066.28,6.969,6.969,0,0,0,3.83,0,.036.036,0,0,1,0-.01,1.213,1.213,0,0,1-.025-.278h0a7.651,7.651,0,0,1,.1-.78,2.865,2.865,0,0,0,.019-.384v-.046C326.713,453.836,326.712,453.8,326.711,453.762Zm0,0a.7.7,0,0,0-.007-.122c-.007-.041-.006-.076-.011-.115s-.009-.077-.014-.116-.012-.078-.019-.116-.014-.077-.022-.116a.174.174,0,0,0-.008-.039c-.011-.051-.023-.1-.037-.154s-.021-.083-.034-.123a.174.174,0,0,0-.016-.054c-.006-.017-.017-.059-.027-.089l-.018-.057c-.008-.025-.016-.051-.026-.076-.015-.046-.032-.091-.048-.137s-.034-.091-.051-.136c-.035-.092-.072-.183-.11-.273-.148-.353-.314-.7-.467-1.045a5.782,5.782,0,0,1-.218-.554l-.019.028a1.171,1.171,0,0,0-.083.147,3.643,3.643,0,0,1-.8,1.785l-.809-1.178-.708,1.088a.889.889,0,0,0-.284.5c-.022.071-.044.149-.064.232-.014.055-.028.113-.04.171-.007.03-.013.059-.019.09l-.018.093v.014c-.012.063-.024.129-.036.195s-.024.143-.036.215q-.012.07-.021.141c-.014.091-.026.183-.039.273-.007.053-.014.1-.02.158l-.024.2c.052.167.11.333.17.495a.822.822,0,0,1,.066.28,6.969,6.969,0,0,0,3.83,0,.036.036,0,0,1,0-.01,1.213,1.213,0,0,1-.025-.278h0a7.651,7.651,0,0,1,.1-.78,2.865,2.865,0,0,0,.019-.384v-.046C326.713,453.836,326.712,453.8,326.711,453.762Zm0,0a.7.7,0,0,0-.007-.122c-.007-.041-.006-.076-.011-.115s-.009-.077-.014-.116-.012-.078-.019-.116-.014-.077-.022-.116a.174.174,0,0,0-.008-.039c-.011-.051-.023-.1-.037-.154s-.021-.083-.034-.123a.174.174,0,0,0-.016-.054c-.006-.017-.017-.059-.027-.089l-.018-.057c-.008-.025-.016-.051-.026-.076-.015-.046-.032-.091-.048-.137s-.034-.091-.051-.136c-.035-.092-.072-.183-.11-.273-.148-.353-.314-.7-.467-1.045a5.782,5.782,0,0,1-.218-.554l-.019.028a1.171,1.171,0,0,0-.083.147,3.643,3.643,0,0,1-.8,1.785l-.809-1.178-.708,1.088a.889.889,0,0,0-.284.5c-.022.071-.044.149-.064.232-.014.055-.028.113-.04.171-.007.03-.013.059-.019.09l-.018.093v.014c-.012.063-.024.129-.036.195s-.024.143-.036.215q-.012.07-.021.141c-.014.091-.026.183-.039.273-.007.053-.014.1-.02.158l-.024.2c.052.167.11.333.17.495a.822.822,0,0,1,.066.28,6.969,6.969,0,0,0,3.83,0,.036.036,0,0,1,0-.01,1.213,1.213,0,0,1-.025-.278h0a7.651,7.651,0,0,1,.1-.78,2.865,2.865,0,0,0,.019-.384v-.046C326.713,453.836,326.712,453.8,326.711,453.762Zm0,0a.7.7,0,0,0-.007-.122c-.007-.041-.006-.076-.011-.115s-.009-.077-.014-.116-.012-.078-.019-.116-.014-.077-.022-.116a.174.174,0,0,0-.008-.039c-.011-.051-.023-.1-.037-.154s-.021-.083-.034-.123a.174.174,0,0,0-.016-.054c-.006-.017-.017-.059-.027-.089l-.018-.057c-.008-.025-.016-.051-.026-.076-.015-.046-.032-.091-.048-.137s-.034-.091-.051-.136c-.035-.092-.072-.183-.11-.273-.148-.353-.314-.7-.467-1.045a5.782,5.782,0,0,1-.218-.554l-.019.028a1.171,1.171,0,0,0-.083.147,3.643,3.643,0,0,1-.8,1.785l-.809-1.178-.708,1.088a.889.889,0,0,0-.284.5c-.022.071-.044.149-.064.232-.014.055-.028.113-.04.171-.007.03-.013.059-.019.09l-.018.093v.014c-.012.063-.024.129-.036.195s-.024.143-.036.215q-.012.07-.021.141c-.014.091-.026.183-.039.273-.007.053-.014.1-.02.158l-.024.2c.052.167.11.333.17.495a.822.822,0,0,1,.066.28,6.969,6.969,0,0,0,3.83,0,.036.036,0,0,1,0-.01,1.213,1.213,0,0,1-.025-.278h0a7.651,7.651,0,0,1,.1-.78,2.865,2.865,0,0,0,.019-.384v-.046C326.713,453.836,326.712,453.8,326.711,453.762Zm0,0a.7.7,0,0,0-.007-.122c-.007-.041-.006-.076-.011-.115s-.009-.077-.014-.116-.012-.078-.019-.116-.014-.077-.022-.116a.174.174,0,0,0-.008-.039c-.011-.051-.023-.1-.037-.154s-.021-.083-.034-.123a.174.174,0,0,0-.016-.054c-.006-.017-.017-.059-.027-.089l-.018-.057c-.008-.025-.016-.051-.026-.076-.015-.046-.032-.091-.048-.137s-.034-.091-.051-.136c-.035-.092-.072-.183-.11-.273-.148-.353-.314-.7-.467-1.045a5.782,5.782,0,0,1-.218-.554l-.019.028a1.171,1.171,0,0,0-.083.147,3.643,3.643,0,0,1-.8,1.785l-.809-1.178-.708,1.088a.889.889,0,0,0-.284.5c-.022.071-.044.149-.064.232-.014.055-.028.113-.04.171-.007.03-.013.059-.019.09l-.018.093v.014c-.012.063-.024.129-.036.195s-.024.143-.036.215q-.012.07-.021.141c-.014.091-.026.183-.039.273-.007.053-.014.1-.02.158l-.024.2c.052.167.11.333.17.495a.822.822,0,0,1,.066.28,6.969,6.969,0,0,0,3.83,0,.036.036,0,0,1,0-.01,1.213,1.213,0,0,1-.025-.278h0a7.651,7.651,0,0,1,.1-.78,2.865,2.865,0,0,0,.019-.384v-.046C326.713,453.836,326.712,453.8,326.711,453.762Z" transform="translate(-317.772 -441.771)" fill="#fff"/>
      <path id="Path_2329" data-name="Path 2329" d="M306.168,451.381l-.068-.009a2.48,2.48,0,0,1-.306-.061l-.038-.01c-.249-.07-.521-.2-.582-.419a.4.4,0,0,1,.006-.217,1.863,1.863,0,0,1,.139-.351v-.006a.488.488,0,0,1,.026-.046,1.02,1.02,0,0,1,.368-.4l-.122.019-1.036.168-1.606.259s-.286-.057-.674,1.014a.165.165,0,0,1-.013.04c-.094.262-.193.59-.295,1-.07.284-.135.562-.194.832-.017.082-.035.162-.051.242a6.478,6.478,0,0,0,.593.612l.034.032a6.963,6.963,0,0,0,1.359.962l.019.01a6.728,6.728,0,0,0,.959.424l.087.031c.018-.189.039-.4.063-.612a.174.174,0,0,1,.008-.064l.024-.2c.006-.052.013-.1.02-.158.012-.091.024-.183.039-.273q.009-.07.021-.141c.011-.072.023-.145.036-.215s.023-.132.036-.195v-.014l.018-.093c.006-.031.012-.06.019-.09.012-.058.025-.116.04-.171.02-.083.042-.16.064-.232a.872.872,0,0,1,.284-.5l.708-1.088.03-.046.013-.02Z" transform="translate(-300.064 -442)" opacity="0.1"/>
      <path id="Path_2330" data-name="Path 2330" d="M305.479,451.4l-.752,1.155a.862.862,0,0,0-.278.489c-.023.075-.047.158-.069.245a12.184,12.184,0,0,0-.231,1.335.158.158,0,0,1-.008.061c-.035.284-.063.562-.087.808a6.728,6.728,0,0,1-.959-.424l-.019-.01a6.964,6.964,0,0,1-1.359-.962l-.034-.032a6.478,6.478,0,0,1-.593-.612c-.024-.028-.048-.056-.071-.085.011-.053.022-.1.035-.159.058-.27.122-.548.193-.83a10.037,10.037,0,0,1,.347-1.142.306.306,0,0,1,.013-.033c.361-.929.621-.877.621-.877l1.7-.273L305,449.88l-.034.019a1.086,1.086,0,0,0-.295.314l-.03.05c-.012.019-.023.041-.036.062a1.808,1.808,0,0,0-.141.357.375.375,0,0,0,.024.292.971.971,0,0,0,.629.365l.04.01A2.551,2.551,0,0,0,305.479,451.4Z" transform="translate(-299.435 -442.018)" fill="#444176"/>
      <path id="Path_2331" data-name="Path 2331" d="M374.674,451.172l-.042-.906c.178-1.428-.178-1.517-.178-1.517l-.424-.2h-.011l-1.706-.827-.066-.033-.02-.009h0l-.222-.108h0l-.141-.068-.263-.127-.089-.043v.354c0,.1.009.221.017.36.018.349.052.816.112,1.367.034.319.076.668.13,1.042.032.221.054.442.068.657a11.558,11.558,0,0,1-.067,2.172l.093-.03a6.833,6.833,0,0,0,.738-.3h0a6.778,6.778,0,0,0,1.316-.808l.018-.013a6.807,6.807,0,0,0,.74-.672Z" transform="translate(-362.736 -439.728)" opacity="0.1"/>
      <path id="Path_2332" data-name="Path 2332" d="M375.536,451.127l-.042-.908c.178-1.428-.178-1.517-.178-1.517l-.51-.247h-.01l-1.711-.83-.079-.038-.015-.007-.125-.061-.166-.081-.328-.159v.145h0v.179c0,.1.009.236.018.388.017.325.048.752.1,1.259.037.348.083.734.143,1.15q.047.334.067.66a11.546,11.546,0,0,1-.063,2.142,6.829,6.829,0,0,0,.738-.3h0a6.775,6.775,0,0,0,1.316-.808l.018-.013a6.81,6.81,0,0,0,.74-.672q.045-.045.086-.092Z" transform="translate(-363.508 -439.683)" fill="#444176"/>
      <path id="Path_2333" data-name="Path 2333" d="M317.64,390.8a1.484,1.484,0,0,0-.14.51c-.109.4-.542.649-.641,1.051-.058.235.009.483-.031.722-.072.44-.474.737-.7,1.122a1.514,1.514,0,0,0-.093,1.316,2.106,2.106,0,0,1,.13.333,1.214,1.214,0,0,1-.032.51,1.617,1.617,0,0,0,.02,1.09,1.043,1.043,0,0,0,.764.49,2.967,2.967,0,0,0,.935-.043,2.705,2.705,0,0,0,.977-.286l-1.1-2.666a2.225,2.225,0,0,1-.224-.839,1.845,1.845,0,0,1,.138-.626,5.426,5.426,0,0,1,.918-1.586c.16.186.148.468.281.674a1.064,1.064,0,0,0,.455.34,15.072,15.072,0,0,0,1.61.673.211.211,0,0,1,.157.314l-.416,1.718a1.332,1.332,0,0,0,.063,1.122c.236.306.767.451.77.846a1.347,1.347,0,0,0,0,.188c.028.185.247.273.433.282a1.292,1.292,0,0,0,1.3-1.058c.1-.675-.345-1.3-.531-1.955-.314-1.107.1-2.4-.515-3.377a2.874,2.874,0,0,0-2.275-1.1C319.281,390.486,318.067,390.231,317.64,390.8Z" transform="translate(-312.824 -388.639)" opacity="0.1"/>
      <path id="Path_2334" data-name="Path 2334" d="M317.64,389.8a1.484,1.484,0,0,0-.14.51c-.109.4-.542.649-.641,1.051-.058.235.009.483-.031.722-.072.44-.474.737-.7,1.122a1.514,1.514,0,0,0-.093,1.316,2.1,2.1,0,0,1,.13.333,1.214,1.214,0,0,1-.032.51,1.617,1.617,0,0,0,.02,1.09,1.043,1.043,0,0,0,.764.49,2.969,2.969,0,0,0,.935-.043,2.707,2.707,0,0,0,.977-.286l-1.1-2.666a2.225,2.225,0,0,1-.224-.839,1.845,1.845,0,0,1,.138-.626,5.426,5.426,0,0,1,.918-1.586c.16.186.148.468.281.674a1.064,1.064,0,0,0,.455.34,15.072,15.072,0,0,0,1.61.673.211.211,0,0,1,.157.314l-.416,1.718a1.332,1.332,0,0,0,.063,1.122c.236.306.767.451.77.846a1.346,1.346,0,0,0,0,.188c.028.185.247.273.433.283a1.292,1.292,0,0,0,1.3-1.058c.1-.675-.345-1.3-.531-1.955-.314-1.107.1-2.4-.515-3.377a2.874,2.874,0,0,0-2.275-1.1C319.281,389.486,318.067,389.231,317.64,389.8Z" transform="translate(-312.824 -387.741)" fill="#493545"/>
    </g>
    <g id="Group_1035" data-name="Group 1035" transform="translate(24.711 60.164)" opacity="0.5">
      <path id="Path_2335" data-name="Path 2335" d="M299.351,620.734a6.9,6.9,0,0,1-1.67,4.513c-.053.062-.108.123-.164.184q-.042.047-.086.092a6.8,6.8,0,0,1-.74.672l-.018.013a6.779,6.779,0,0,1-1.316.808h0a6.846,6.846,0,0,1-.738.3l-.093.03c-.057.019-.116.037-.174.053l-.023.007a6.97,6.97,0,0,1-3.83,0h-.01c-.1-.03-.2-.06-.3-.094l-.087-.031a6.711,6.711,0,0,1-.959-.424l-.019-.01a6.961,6.961,0,0,1-1.359-.962l-.034-.032a6.482,6.482,0,0,1-.593-.612c-.024-.028-.048-.056-.071-.085-.045-.053-.088-.108-.131-.163a6.936,6.936,0,1,1,12.412-4.255Z" transform="translate(-285.48 -613.798)" fill="#c0bccf"/>
      <path id="Path_2336" data-name="Path 2336" d="M311.445,636.906l-.042-.918c.178-1.451-.178-1.542-.178-1.542l-.51-.251-.01-.005-1.711-.843-.079-.039-.01-.042s.034-.1-.136-.119a.621.621,0,0,1-.043-.26,1.115,1.115,0,0,1,.28-.51,2.1,2.1,0,0,0,.336-1.486,3.5,3.5,0,0,0-.569-1.436l-.033-.048a1.728,1.728,0,0,0,.06-.451,2.433,2.433,0,0,0-2.652-2.126,2.542,2.542,0,0,0-2.622,1.807.934.934,0,0,0-.081.126c-.269.5.147.88.16,1.383a1.789,1.789,0,0,1-.408.937.938.938,0,0,0-.132.974c.062.1.156.168.212.268.2.348-.131.747-.25,1.128a1.078,1.078,0,0,0-.033.136l-.787.128s-.26-.053-.621.891a.319.319,0,0,0-.013.034,10.343,10.343,0,0,0-.347,1.162q-.106.431-.193.844c-.012.054-.023.108-.035.162.023.029.047.058.071.086a6.545,6.545,0,0,0,.593.624l.034.033a6.964,6.964,0,0,0,1.359.978l.019.01a6.672,6.672,0,0,0,.959.431l.087.031c.1.035.2.065.3.1a.377.377,0,0,1,.008.047V639.1a6.86,6.86,0,0,0,3.83,0l.023-.007c.058-.016.117-.035.174-.054l.093-.03a6.875,6.875,0,0,0,2.054-1.122l.018-.013a6.841,6.841,0,0,0,.74-.683q.045-.045.086-.093Z" transform="translate(-299.417 -625.501)" fill="url(#linear-gradient-3)"/>
      <path id="Path_2337" data-name="Path 2337" d="M321,645.455a1.717,1.717,0,0,1-.408.918.908.908,0,0,0-.132.958c.062.094.156.166.212.264.2.342-.131.734-.25,1.11a1.393,1.393,0,0,0,.312,1.27,3.379,3.379,0,0,0,1.093.8,9.758,9.758,0,0,0,2.7.963,2.59,2.59,0,0,0,1.483-.066,1.577,1.577,0,0,0,.89-1.734,9.864,9.864,0,0,0-.714-1.475.69.69,0,0,1-.067-.319,1.078,1.078,0,0,1,.28-.5,2.04,2.04,0,0,0,.33-1.451,3.407,3.407,0,0,0-.569-1.414,1.548,1.548,0,0,0-.408-.449,1.789,1.789,0,0,0-.763-.231c-1.108-.155-2.255-.324-3.372-.381a.723.723,0,0,0-.786.381C320.568,644.59,320.983,644.96,321,645.455Z" transform="translate(-316.807 -640.662)" fill="#444176"/>
      <path id="Path_2338" data-name="Path 2338" d="M336.936,670.841l-2.1,2.989-2.052-.178s-.067.714-.892-1.874c-.461-1.447.476-.944.661-1.345s.51-.755.537-1.051a1.854,1.854,0,0,0-.128-1l2.231-.267a1.664,1.664,0,0,0-.037.931C335.434,670.212,336.936,670.841,336.936,670.841Z" transform="translate(-327.043 -662.58)" fill="#c77485"/>
      <ellipse id="Ellipse_190" data-name="Ellipse 190" cx="2.652" cy="2.091" rx="2.652" ry="2.091" transform="translate(4.08 1.531)" fill="#444176"/>
      <path id="Path_2339" data-name="Path 2339" d="M345.684,669.05a2.229,2.229,0,0,1-2.066.333,1.855,1.855,0,0,0-.128-1l2.231-.267A1.665,1.665,0,0,0,345.684,669.05Z" transform="translate(-337.573 -662.58)" opacity="0.1"/>
      <circle id="Ellipse_191" data-name="Ellipse 191" cx="2.231" cy="2.231" r="2.231" transform="translate(4.535 2.373)" fill="#c77485"/>
      <path id="Path_2340" data-name="Path 2340" d="M327.248,690.575l-.052-.2-.045-.18-.066-.265-.012-.049-.01-.041s.053-.16-.3-.108l-.065.011c-.055.011-.119.027-.193.047l-.066.02-.088.028h0a1.912,1.912,0,0,0-.74.447,1.667,1.667,0,0,0-.248.3l-.018.028a.963.963,0,0,0-.064.118,3.638,3.638,0,0,1-.8,1.785l-.784-1.133-.015-.022-.187-.271-.066-.088-.022-.031-.408-.548-.1-.137-.034-.046-.05-.066-.117-.156-.459.268-.612.357-.357,2.32v.064l.011.192.074,1.261v.017l-.131.522.019.01a6.715,6.715,0,0,0,.959.424l.087.031c.1.034.2.064.3.094a.363.363,0,0,1,.008.046v-.044a6.97,6.97,0,0,0,3.83,0l.023-.007c.058-.016.117-.034.174-.053l.093-.03a6.845,6.845,0,0,0,.738-.3l.086-1.826.061-1.317v-.076Z" transform="translate(-317.575 -681.975)" opacity="0.1"/>
      <path id="Path_2341" data-name="Path 2341" d="M326.711,694.762a.7.7,0,0,0-.007-.122c-.007-.041-.006-.076-.011-.115s-.009-.078-.014-.116-.012-.078-.019-.116-.014-.078-.022-.116a.174.174,0,0,0-.008-.039c-.011-.051-.023-.1-.037-.154s-.021-.083-.034-.123a.174.174,0,0,0-.016-.054c-.006-.017-.017-.059-.027-.089l-.018-.057c-.008-.026-.016-.051-.026-.076-.015-.046-.032-.091-.048-.137s-.034-.091-.051-.136c-.035-.092-.072-.183-.11-.273-.148-.353-.314-.7-.467-1.045a5.794,5.794,0,0,1-.218-.554l-.019.028a1.175,1.175,0,0,0-.083.147,3.643,3.643,0,0,1-.8,1.785l-.809-1.178-.708,1.088a.889.889,0,0,0-.284.5c-.022.071-.044.149-.064.232-.014.055-.028.113-.04.171-.007.03-.013.059-.019.09l-.018.093v.014c-.012.063-.024.129-.036.195s-.024.143-.036.215q-.012.07-.021.141c-.014.091-.026.183-.039.273-.007.053-.014.1-.02.158l-.024.2c.052.167.11.332.17.495a.822.822,0,0,1,.066.28,6.969,6.969,0,0,0,3.83,0,.036.036,0,0,1,0-.01,1.212,1.212,0,0,1-.025-.278h0a7.642,7.642,0,0,1,.1-.78,2.866,2.866,0,0,0,.019-.383v-.046C326.713,694.836,326.712,694.8,326.711,694.762Zm0,0a.7.7,0,0,0-.007-.122c-.007-.041-.006-.076-.011-.115s-.009-.078-.014-.116-.012-.078-.019-.116-.014-.078-.022-.116a.174.174,0,0,0-.008-.039c-.011-.051-.023-.1-.037-.154s-.021-.083-.034-.123a.174.174,0,0,0-.016-.054c-.006-.017-.017-.059-.027-.089l-.018-.057c-.008-.026-.016-.051-.026-.076-.015-.046-.032-.091-.048-.137s-.034-.091-.051-.136c-.035-.092-.072-.183-.11-.273-.148-.353-.314-.7-.467-1.045a5.794,5.794,0,0,1-.218-.554l-.019.028a1.175,1.175,0,0,0-.083.147,3.643,3.643,0,0,1-.8,1.785l-.809-1.178-.708,1.088a.889.889,0,0,0-.284.5c-.022.071-.044.149-.064.232-.014.055-.028.113-.04.171-.007.03-.013.059-.019.09l-.018.093v.014c-.012.063-.024.129-.036.195s-.024.143-.036.215q-.012.07-.021.141c-.014.091-.026.183-.039.273-.007.053-.014.1-.02.158l-.024.2c.052.167.11.332.17.495a.822.822,0,0,1,.066.28,6.969,6.969,0,0,0,3.83,0,.036.036,0,0,1,0-.01,1.212,1.212,0,0,1-.025-.278h0a7.642,7.642,0,0,1,.1-.78,2.866,2.866,0,0,0,.019-.383v-.046C326.713,694.836,326.712,694.8,326.711,694.762Zm0,0a.7.7,0,0,0-.007-.122c-.007-.041-.006-.076-.011-.115s-.009-.078-.014-.116-.012-.078-.019-.116-.014-.078-.022-.116a.174.174,0,0,0-.008-.039c-.011-.051-.023-.1-.037-.154s-.021-.083-.034-.123a.174.174,0,0,0-.016-.054c-.006-.017-.017-.059-.027-.089l-.018-.057c-.008-.026-.016-.051-.026-.076-.015-.046-.032-.091-.048-.137s-.034-.091-.051-.136c-.035-.092-.072-.183-.11-.273-.148-.353-.314-.7-.467-1.045a5.794,5.794,0,0,1-.218-.554l-.019.028a1.175,1.175,0,0,0-.083.147,3.643,3.643,0,0,1-.8,1.785l-.809-1.178-.708,1.088a.889.889,0,0,0-.284.5c-.022.071-.044.149-.064.232-.014.055-.028.113-.04.171-.007.03-.013.059-.019.09l-.018.093v.014c-.012.063-.024.129-.036.195s-.024.143-.036.215q-.012.07-.021.141c-.014.091-.026.183-.039.273-.007.053-.014.1-.02.158l-.024.2c.052.167.11.332.17.495a.822.822,0,0,1,.066.28,6.969,6.969,0,0,0,3.83,0,.036.036,0,0,1,0-.01,1.212,1.212,0,0,1-.025-.278h0a7.642,7.642,0,0,1,.1-.78,2.866,2.866,0,0,0,.019-.383v-.046C326.713,694.836,326.712,694.8,326.711,694.762Zm1.081-1.914-.364-1.453-.062-.249-.017-.068h0l-.089-.355a.061.061,0,0,0,0-.009h0a.082.082,0,0,0-.007-.046c-.013-.026-.047-.054-.125-.061a.612.612,0,0,0-.09,0h0a1.555,1.555,0,0,0-.262.049c-.042.011-.087.023-.135.039l-.088.028h-.008a1.946,1.946,0,0,0-.643.357,1.733,1.733,0,0,0-.326.361l-.019.028a1.176,1.176,0,0,0-.083.147,3.643,3.643,0,0,1-.8,1.785l-.809-1.178-.046-.066-.008-.011-.117-.172-.089-.118-.023-.031-.418-.558h0l-.133-.181v-.006l-.046-.062-.088-.116-.306.178-.765.446-.353,2.3v.024l.01.167.075,1.278v.072l-.115.46a6.728,6.728,0,0,0,.959.424l.087.031c.1.034.2.064.3.094a.364.364,0,0,1,.008.046v-.044a6.969,6.969,0,0,0,3.83,0l.023-.007c.058-.016.117-.034.174-.053l.093-.03a6.858,6.858,0,0,0,.738-.3h0l.085-1.824.061-1.3Zm-5.016,3.522a.353.353,0,0,1,.008.046v-.044Zm3.935-1.607a.7.7,0,0,0-.007-.122c-.007-.041-.006-.076-.011-.115s-.009-.078-.014-.116-.012-.078-.019-.116-.014-.078-.022-.116a.174.174,0,0,0-.008-.039c-.011-.051-.023-.1-.037-.154s-.021-.083-.034-.123a.174.174,0,0,0-.016-.054c-.006-.017-.017-.059-.027-.089l-.018-.057c-.008-.026-.016-.051-.026-.076-.015-.046-.032-.091-.048-.137s-.034-.091-.051-.136c-.035-.092-.072-.183-.11-.273-.148-.353-.314-.7-.467-1.045a5.794,5.794,0,0,1-.218-.554l-.019.028a1.175,1.175,0,0,0-.083.147,3.643,3.643,0,0,1-.8,1.785l-.809-1.178-.708,1.088a.889.889,0,0,0-.284.5c-.022.071-.044.149-.064.232-.014.055-.028.113-.04.171-.007.03-.013.059-.019.09l-.018.093v.014c-.012.063-.024.129-.036.195s-.024.143-.036.215q-.012.07-.021.141c-.014.091-.026.183-.039.273-.007.053-.014.1-.02.158l-.024.2c.052.167.11.332.17.495a.822.822,0,0,1,.066.28,6.969,6.969,0,0,0,3.83,0,.036.036,0,0,1,0-.01,1.212,1.212,0,0,1-.025-.278h0a7.642,7.642,0,0,1,.1-.78,2.866,2.866,0,0,0,.019-.383v-.046C326.713,694.836,326.712,694.8,326.711,694.762Zm0,0a.7.7,0,0,0-.007-.122c-.007-.041-.006-.076-.011-.115s-.009-.078-.014-.116-.012-.078-.019-.116-.014-.078-.022-.116a.174.174,0,0,0-.008-.039c-.011-.051-.023-.1-.037-.154s-.021-.083-.034-.123a.174.174,0,0,0-.016-.054c-.006-.017-.017-.059-.027-.089l-.018-.057c-.008-.026-.016-.051-.026-.076-.015-.046-.032-.091-.048-.137s-.034-.091-.051-.136c-.035-.092-.072-.183-.11-.273-.148-.353-.314-.7-.467-1.045a5.794,5.794,0,0,1-.218-.554l-.019.028a1.175,1.175,0,0,0-.083.147,3.643,3.643,0,0,1-.8,1.785l-.809-1.178-.708,1.088a.889.889,0,0,0-.284.5c-.022.071-.044.149-.064.232-.014.055-.028.113-.04.171-.007.03-.013.059-.019.09l-.018.093v.014c-.012.063-.024.129-.036.195s-.024.143-.036.215q-.012.07-.021.141c-.014.091-.026.183-.039.273-.007.053-.014.1-.02.158l-.024.2c.052.167.11.332.17.495a.822.822,0,0,1,.066.28,6.969,6.969,0,0,0,3.83,0,.036.036,0,0,1,0-.01,1.212,1.212,0,0,1-.025-.278h0a7.642,7.642,0,0,1,.1-.78,2.866,2.866,0,0,0,.019-.383v-.046C326.713,694.836,326.712,694.8,326.711,694.762Zm0,0a.7.7,0,0,0-.007-.122c-.007-.041-.006-.076-.011-.115s-.009-.078-.014-.116-.012-.078-.019-.116-.014-.078-.022-.116a.174.174,0,0,0-.008-.039c-.011-.051-.023-.1-.037-.154s-.021-.083-.034-.123a.174.174,0,0,0-.016-.054c-.006-.017-.017-.059-.027-.089l-.018-.057c-.008-.026-.016-.051-.026-.076-.015-.046-.032-.091-.048-.137s-.034-.091-.051-.136c-.035-.092-.072-.183-.11-.273-.148-.353-.314-.7-.467-1.045a5.794,5.794,0,0,1-.218-.554l-.019.028a1.175,1.175,0,0,0-.083.147,3.643,3.643,0,0,1-.8,1.785l-.809-1.178-.708,1.088a.889.889,0,0,0-.284.5c-.022.071-.044.149-.064.232-.014.055-.028.113-.04.171-.007.03-.013.059-.019.09l-.018.093v.014c-.012.063-.024.129-.036.195s-.024.143-.036.215q-.012.07-.021.141c-.014.091-.026.183-.039.273-.007.053-.014.1-.02.158l-.024.2c.052.167.11.332.17.495a.822.822,0,0,1,.066.28,6.969,6.969,0,0,0,3.83,0,.036.036,0,0,1,0-.01,1.212,1.212,0,0,1-.025-.278h0a7.642,7.642,0,0,1,.1-.78,2.866,2.866,0,0,0,.019-.383v-.046C326.713,694.836,326.712,694.8,326.711,694.762Zm0,0a.7.7,0,0,0-.007-.122c-.007-.041-.006-.076-.011-.115s-.009-.078-.014-.116-.012-.078-.019-.116-.014-.078-.022-.116a.174.174,0,0,0-.008-.039c-.011-.051-.023-.1-.037-.154s-.021-.083-.034-.123a.174.174,0,0,0-.016-.054c-.006-.017-.017-.059-.027-.089l-.018-.057c-.008-.026-.016-.051-.026-.076-.015-.046-.032-.091-.048-.137s-.034-.091-.051-.136c-.035-.092-.072-.183-.11-.273-.148-.353-.314-.7-.467-1.045a5.794,5.794,0,0,1-.218-.554l-.019.028a1.175,1.175,0,0,0-.083.147,3.643,3.643,0,0,1-.8,1.785l-.809-1.178-.708,1.088a.889.889,0,0,0-.284.5c-.022.071-.044.149-.064.232-.014.055-.028.113-.04.171-.007.03-.013.059-.019.09l-.018.093v.014c-.012.063-.024.129-.036.195s-.024.143-.036.215q-.012.07-.021.141c-.014.091-.026.183-.039.273-.007.053-.014.1-.02.158l-.024.2c.052.167.11.332.17.495a.822.822,0,0,1,.066.28,6.969,6.969,0,0,0,3.83,0,.036.036,0,0,1,0-.01,1.212,1.212,0,0,1-.025-.278h0a7.642,7.642,0,0,1,.1-.78,2.866,2.866,0,0,0,.019-.383v-.046C326.713,694.836,326.712,694.8,326.711,694.762Zm0,0a.7.7,0,0,0-.007-.122c-.007-.041-.006-.076-.011-.115s-.009-.078-.014-.116-.012-.078-.019-.116-.014-.078-.022-.116a.174.174,0,0,0-.008-.039c-.011-.051-.023-.1-.037-.154s-.021-.083-.034-.123a.174.174,0,0,0-.016-.054c-.006-.017-.017-.059-.027-.089l-.018-.057c-.008-.026-.016-.051-.026-.076-.015-.046-.032-.091-.048-.137s-.034-.091-.051-.136c-.035-.092-.072-.183-.11-.273-.148-.353-.314-.7-.467-1.045a5.794,5.794,0,0,1-.218-.554l-.019.028a1.175,1.175,0,0,0-.083.147,3.643,3.643,0,0,1-.8,1.785l-.809-1.178-.708,1.088a.889.889,0,0,0-.284.5c-.022.071-.044.149-.064.232-.014.055-.028.113-.04.171-.007.03-.013.059-.019.09l-.018.093v.014c-.012.063-.024.129-.036.195s-.024.143-.036.215q-.012.07-.021.141c-.014.091-.026.183-.039.273-.007.053-.014.1-.02.158l-.024.2c.052.167.11.332.17.495a.822.822,0,0,1,.066.28,6.969,6.969,0,0,0,3.83,0,.036.036,0,0,1,0-.01,1.212,1.212,0,0,1-.025-.278h0a7.642,7.642,0,0,1,.1-.78,2.866,2.866,0,0,0,.019-.383v-.046C326.713,694.836,326.712,694.8,326.711,694.762Zm0,0a.7.7,0,0,0-.007-.122c-.007-.041-.006-.076-.011-.115s-.009-.078-.014-.116-.012-.078-.019-.116-.014-.078-.022-.116a.174.174,0,0,0-.008-.039c-.011-.051-.023-.1-.037-.154s-.021-.083-.034-.123a.174.174,0,0,0-.016-.054c-.006-.017-.017-.059-.027-.089l-.018-.057c-.008-.026-.016-.051-.026-.076-.015-.046-.032-.091-.048-.137s-.034-.091-.051-.136c-.035-.092-.072-.183-.11-.273-.148-.353-.314-.7-.467-1.045a5.794,5.794,0,0,1-.218-.554l-.019.028a1.175,1.175,0,0,0-.083.147,3.643,3.643,0,0,1-.8,1.785l-.809-1.178-.708,1.088a.889.889,0,0,0-.284.5c-.022.071-.044.149-.064.232-.014.055-.028.113-.04.171-.007.03-.013.059-.019.09l-.018.093v.014c-.012.063-.024.129-.036.195s-.024.143-.036.215q-.012.07-.021.141c-.014.091-.026.183-.039.273-.007.053-.014.1-.02.158l-.024.2c.052.167.11.332.17.495a.822.822,0,0,1,.066.28,6.969,6.969,0,0,0,3.83,0,.036.036,0,0,1,0-.01,1.212,1.212,0,0,1-.025-.278h0a7.642,7.642,0,0,1,.1-.78,2.866,2.866,0,0,0,.019-.383v-.046C326.713,694.836,326.712,694.8,326.711,694.762Zm0,0a.7.7,0,0,0-.007-.122c-.007-.041-.006-.076-.011-.115s-.009-.078-.014-.116-.012-.078-.019-.116-.014-.078-.022-.116a.174.174,0,0,0-.008-.039c-.011-.051-.023-.1-.037-.154s-.021-.083-.034-.123a.174.174,0,0,0-.016-.054c-.006-.017-.017-.059-.027-.089l-.018-.057c-.008-.026-.016-.051-.026-.076-.015-.046-.032-.091-.048-.137s-.034-.091-.051-.136c-.035-.092-.072-.183-.11-.273-.148-.353-.314-.7-.467-1.045a5.794,5.794,0,0,1-.218-.554l-.019.028a1.175,1.175,0,0,0-.083.147,3.643,3.643,0,0,1-.8,1.785l-.809-1.178-.708,1.088a.889.889,0,0,0-.284.5c-.022.071-.044.149-.064.232-.014.055-.028.113-.04.171-.007.03-.013.059-.019.09l-.018.093v.014c-.012.063-.024.129-.036.195s-.024.143-.036.215q-.012.07-.021.141c-.014.091-.026.183-.039.273-.007.053-.014.1-.02.158l-.024.2c.052.167.11.332.17.495a.822.822,0,0,1,.066.28,6.969,6.969,0,0,0,3.83,0,.036.036,0,0,1,0-.01,1.212,1.212,0,0,1-.025-.278h0a7.642,7.642,0,0,1,.1-.78,2.866,2.866,0,0,0,.019-.383v-.046C326.713,694.836,326.712,694.8,326.711,694.762Zm0,0a.7.7,0,0,0-.007-.122c-.007-.041-.006-.076-.011-.115s-.009-.078-.014-.116-.012-.078-.019-.116-.014-.078-.022-.116a.174.174,0,0,0-.008-.039c-.011-.051-.023-.1-.037-.154s-.021-.083-.034-.123a.174.174,0,0,0-.016-.054c-.006-.017-.017-.059-.027-.089l-.018-.057c-.008-.026-.016-.051-.026-.076-.015-.046-.032-.091-.048-.137s-.034-.091-.051-.136c-.035-.092-.072-.183-.11-.273-.148-.353-.314-.7-.467-1.045a5.794,5.794,0,0,1-.218-.554l-.019.028a1.175,1.175,0,0,0-.083.147,3.643,3.643,0,0,1-.8,1.785l-.809-1.178-.708,1.088a.889.889,0,0,0-.284.5c-.022.071-.044.149-.064.232-.014.055-.028.113-.04.171-.007.03-.013.059-.019.09l-.018.093v.014c-.012.063-.024.129-.036.195s-.024.143-.036.215q-.012.07-.021.141c-.014.091-.026.183-.039.273-.007.053-.014.1-.02.158l-.024.2c.052.167.11.332.17.495a.822.822,0,0,1,.066.28,6.969,6.969,0,0,0,3.83,0,.036.036,0,0,1,0-.01,1.212,1.212,0,0,1-.025-.278h0a7.642,7.642,0,0,1,.1-.78,2.866,2.866,0,0,0,.019-.383v-.046C326.713,694.836,326.712,694.8,326.711,694.762Z" transform="translate(-317.772 -682.771)" fill="#444176"/>
      <path id="Path_2342" data-name="Path 2342" d="M306.168,692.381l-.068-.009a2.5,2.5,0,0,1-.306-.061l-.038-.01c-.249-.07-.521-.2-.582-.419a.4.4,0,0,1,.006-.217,1.867,1.867,0,0,1,.139-.351v-.006a.5.5,0,0,1,.026-.046,1.02,1.02,0,0,1,.368-.4l-.122.019-1.036.168-1.606.259s-.286-.057-.674,1.014a.166.166,0,0,1-.013.04c-.094.262-.193.59-.295,1-.07.284-.135.562-.194.832-.017.082-.035.162-.051.242a6.47,6.47,0,0,0,.593.612l.034.032a6.964,6.964,0,0,0,1.359.962l.019.01a6.728,6.728,0,0,0,.959.424l.087.031c.018-.189.039-.4.063-.612a.174.174,0,0,1,.008-.064l.024-.2c.006-.052.013-.1.02-.158.012-.091.024-.182.039-.273q.009-.07.021-.141c.011-.072.023-.145.036-.215s.023-.132.036-.195v-.014l.018-.093c.006-.031.012-.06.019-.09.012-.058.025-.116.04-.171.02-.083.042-.16.064-.231a.872.872,0,0,1,.284-.5l.708-1.088.03-.046.013-.02Z" transform="translate(-300.064 -683)" opacity="0.1"/>
      <path id="Path_2343" data-name="Path 2343" d="M305.479,692.4l-.752,1.155a.863.863,0,0,0-.278.489c-.023.076-.047.158-.069.245a12.183,12.183,0,0,0-.231,1.335.158.158,0,0,1-.008.061c-.035.284-.063.562-.087.808a6.735,6.735,0,0,1-.959-.424l-.019-.01a6.959,6.959,0,0,1-1.359-.962l-.034-.032a6.477,6.477,0,0,1-.593-.612c-.024-.028-.048-.056-.071-.085.011-.053.022-.1.035-.159.058-.27.122-.548.193-.83a10.045,10.045,0,0,1,.347-1.142.314.314,0,0,1,.013-.033c.361-.929.621-.877.621-.877l1.7-.273L305,690.88l-.034.019a1.086,1.086,0,0,0-.295.314l-.03.05c-.012.019-.023.041-.036.062a1.81,1.81,0,0,0-.141.357.375.375,0,0,0,.024.292.971.971,0,0,0,.629.365l.04.01A2.573,2.573,0,0,0,305.479,692.4Z" transform="translate(-299.435 -683.018)" fill="#f1d2d7"/>
      <path id="Path_2344" data-name="Path 2344" d="M374.674,692.172l-.042-.906c.178-1.428-.178-1.517-.178-1.517l-.424-.2h-.011l-1.706-.827-.066-.033-.02-.009h0l-.222-.108h0l-.141-.068-.263-.128-.089-.043v.354c0,.1.009.221.017.36.018.349.052.816.112,1.367.034.319.076.668.13,1.042.032.221.054.442.068.657a11.558,11.558,0,0,1-.067,2.172l.093-.03a6.833,6.833,0,0,0,.738-.3h0a6.778,6.778,0,0,0,1.316-.808l.018-.013a6.806,6.806,0,0,0,.74-.672Z" transform="translate(-362.736 -680.728)" opacity="0.1"/>
      <path id="Path_2345" data-name="Path 2345" d="M375.536,692.127l-.042-.908c.178-1.428-.178-1.517-.178-1.517l-.51-.247h-.01l-1.711-.83-.079-.038-.015-.007-.125-.061-.166-.081-.328-.159v.145h0v.18c0,.1.009.236.018.388.017.325.048.752.1,1.259.037.348.083.734.143,1.151q.047.333.067.66a11.546,11.546,0,0,1-.063,2.142,6.86,6.86,0,0,0,.738-.3,6.774,6.774,0,0,0,1.316-.808l.018-.013a6.816,6.816,0,0,0,.74-.672q.045-.045.086-.092Z" transform="translate(-363.508 -680.683)" fill="#f1d2d7"/>
      <path id="Path_2346" data-name="Path 2346" d="M331.4,636.167a2.551,2.551,0,0,1,.955-.1,3.121,3.121,0,0,1,.729.354,1.887,1.887,0,0,0,.753.2.442.442,0,0,0,.276-.054.428.428,0,0,0,.123-.42,2.412,2.412,0,0,0-.612-1.146,2.24,2.24,0,0,0-.384-.389,2.025,2.025,0,0,0-1.3-.3,3.267,3.267,0,0,0-1.494.384c-.306.175-1.008.728-.764,1.128C329.931,636.242,331,636.235,331.4,636.167Z" transform="translate(-325.122 -632.216)" opacity="0.1"/>
      <path id="Path_2347" data-name="Path 2347" d="M331.4,635.167a2.553,2.553,0,0,1,.955-.1,3.128,3.128,0,0,1,.729.354,1.886,1.886,0,0,0,.753.2.442.442,0,0,0,.276-.054.428.428,0,0,0,.123-.42,2.412,2.412,0,0,0-.612-1.146,2.243,2.243,0,0,0-.384-.389,2.025,2.025,0,0,0-1.3-.3,3.27,3.27,0,0,0-1.494.383c-.306.175-1.008.728-.764,1.128C329.931,635.242,331,635.235,331.4,635.167Z" transform="translate(-325.122 -631.318)" fill="#444176"/>
    </g>
    <path id="Path_2348" data-name="Path 2348" d="M619.392,353.218h.015a2.748,2.748,0,0,0,.306,1.473c.445.408,2.289-.408,2.162-.9-.025-.1-.068-.269-.122-.48a1.436,1.436,0,0,0,1.092-.5l.32.987.022.07h.024c.211,2,.69,6.156,1.072,6.713a18.554,18.554,0,0,1,1.1,3.933l1.1,6.555a32.223,32.223,0,0,0,.675,4.182.474.474,0,0,0,.277.144,4.017,4.017,0,0,1-.612,1.248c-.51.573-1.181,1.721-1.772,1.639s-.759,1.147.338,1.311a9.061,9.061,0,0,0,2.318-.136.83.83,0,0,0,.8.792,13.474,13.474,0,0,0,3.374-.327s1.938-.816,2.025-1.393a18.237,18.237,0,0,0-.4-2.977c.306-.491-.02-4.724-.02-4.724l-.591-8.111s.338-4.506,0-5.326a25.276,25.276,0,0,1-.319-4.534l.408.027a.754.754,0,0,0,.063-.089l.1.007a1.355,1.355,0,0,0,.085-1.475c-.313-.67-.254-3.7-.2-5.2h0l.06-.714a.2.2,0,0,0,.05-.077,7.482,7.482,0,0,0,2.278-.689,2.311,2.311,0,0,0,.6-.363c.422-.408.168-2.868-.675-6.555s-1.6-3.36-1.6-3.36a4.641,4.641,0,0,1-2.953-1.393c-.928-1.229-1.551-1.213-1.551-1.213h0c-.023-.161-.04-.313-.051-.455,0-.053-.008-.1-.011-.155a2.7,2.7,0,0,0,.7-1.064,5.275,5.275,0,0,0,.6-.264.718.718,0,0,0,.125-.116,1.031,1.031,0,0,0,.325-.642,2.626,2.626,0,0,0-.038-.8,1.95,1.95,0,0,0-1.287-1.767q-1.338-.7-2.683-1.391a1.48,1.48,0,0,0-.574-.2,1.53,1.53,0,0,0-.971.459,4.128,4.128,0,0,0-.331.291,1.858,1.858,0,0,0-.244.262,2.514,2.514,0,0,0-.333,1.876.257.257,0,0,0,.272.229,2.629,2.629,0,0,0-.28,1.183,2.682,2.682,0,0,0,1.245,2.253c0,.057,0,.113.005.167a5.96,5.96,0,0,1-.02.627s-2.244,1.213-2.5,1.786a2.668,2.668,0,0,1-1.181.983s-1.772.9-1.772,4.1l-.928,4.506-.168,8.6s.116-.1.306-.247c-.006.057-.011.116-.016.176a9.691,9.691,0,0,0-.026.988Zm11.331,22.266c-.035.132-.086.306-.15.51-.029-.169-.057-.337-.086-.5.073-.007.152-.011.236-.014Z" transform="translate(-560.398 -294.2)" fill="url(#linear-gradient-4)"/>
    <path id="Path_2349" data-name="Path 2349" d="M676.574,808.364a6.22,6.22,0,0,1-.816,2.031c-.491.568-1.133,1.706-1.7,1.625s-.731,1.137.325,1.3a12.6,12.6,0,0,0,3.244-.324s1.869-.816,1.949-1.381a25.919,25.919,0,0,0-.487-3.493Z" transform="translate(-609.313 -728.136)" fill="#53526b"/>
    <path id="Path_2350" data-name="Path 2350" d="M676.574,808.364a6.22,6.22,0,0,1-.816,2.031c-.491.568-1.133,1.706-1.7,1.625s-.731,1.137.325,1.3a12.6,12.6,0,0,0,3.244-.324s1.869-.816,1.949-1.381a25.919,25.919,0,0,0-.487-3.493Z" transform="translate(-609.313 -728.136)" opacity="0.05"/>
    <path id="Path_2351" data-name="Path 2351" d="M706.03,814.725a6.221,6.221,0,0,1-.816,2.031c-.491.568-1.136,1.706-1.7,1.625s-.731,1.137.325,1.3a12.633,12.633,0,0,0,3.25-.325s1.869-.816,1.949-1.381a25.928,25.928,0,0,0-.487-3.493Z" transform="translate(-635.763 -733.848)" fill="#53526b"/>
    <path id="Path_2352" data-name="Path 2352" d="M659.66,598.67s.65,6.985,1.137,7.717a19.054,19.054,0,0,1,1.056,3.9l1.056,6.5a33.156,33.156,0,0,0,.65,4.143c.242.406,3.257.232,3.257.232l-1.875-21.514Z" transform="translate(-596.786 -540.049)" fill="#5f5d7e"/>
    <path id="Path_2353" data-name="Path 2353" d="M659.66,598.67s.65,6.985,1.137,7.717a19.054,19.054,0,0,1,1.056,3.9l1.056,6.5a33.156,33.156,0,0,0,.65,4.143c.242.406,3.257.232,3.257.232l-1.875-21.514Z" transform="translate(-596.786 -540.049)" opacity="0.05"/>
    <path id="Path_2354" data-name="Path 2354" d="M646.92,566l.212.674,1.147,3.642.023.069h.006c.154.035,3.406.782,4.107,1.012a1,1,0,0,1,.111.042c.325.162.731,6.01.731,6.01s.244,5.524.408,5.93.816,8.771,1.219,8.529a15.145,15.145,0,0,1,3.33,0c.325-.325,0-4.711,0-4.711l-.577-8.04s.325-4.467,0-5.28-.325-6.254-.325-6.254l-6.649-1.039-.643-.1Z" transform="translate(-585.345 -510.711)" fill="#5f5d7e"/>
    <path id="Path_2355" data-name="Path 2355" d="M649,570.6l1.147,3.642.028.071c.154.035,3.406.782,4.107,1.012h.07l-1.816-4.816-.052-.139-.59.038Z" transform="translate(-587.213 -514.635)" opacity="0.02"/>
    <path id="Path_2356" data-name="Path 2356" d="M658.292,406.73s-3.006,3.249-4.874.568l-1.787,1.219.325,1.869L650.9,424.519a16.48,16.48,0,0,1,4.711.568,3.023,3.023,0,0,0,3.168-.731l-.321-12.427.731-3.818Z" transform="translate(-588.919 -367.685)" opacity="0.1"/>
    <path id="Path_2357" data-name="Path 2357" d="M658.292,404.34s-3.006,3.249-4.874.568l-1.787,1.219.325,1.868L650.9,422.129a16.48,16.48,0,0,1,4.711.568,3.023,3.023,0,0,0,3.168-.731l-.321-12.427.731-3.818Z" transform="translate(-588.919 -365.539)" fill="#53526b"/>
    <g id="TESLA" transform="translate(62.426 52.937)">
      <g id="g8">
        <path id="polyline10" d="M613.214,522.36v.512h-.163v-.341h-.6v.341h-.164v-.511h.924" transform="translate(-612.267 -522.025)" fill="#e82127"/>
        <path id="path12" d="M656.062,543.109h-.63a.232.232,0,0,1-.171-.169h.972a.233.233,0,0,1-.171.169" transform="translate(-655.26 -542.94)" fill="#e82127"/>
      </g>
      <g id="g30" transform="translate(5.438 0.006)">
        <path id="path32" d="M709.643,543a.235.235,0,0,1-.17.168h-.265l-.013.005v.669h-.163v-.669l-.015-.005h-.265a.238.238,0,0,1-.17-.168h1.063" transform="translate(-708.58 -543)" fill="#e82127"/>
      </g>
    </g>
    <path id="Path_2358" data-name="Path 2358" d="M628.438,569.2a8.7,8.7,0,0,1-.488,3.006c-.487.893-3.33.408-3.33.408l.568-3.006Z" transform="translate(-565.319 -513.585)" fill="#d6dbe6"/>
    <path id="Path_2359" data-name="Path 2359" d="M625.019,583.542c.428.408,2.2-.408,2.082-.893-.086-.344-.386-1.574-.556-2.271l-.118-.491s-1.04-.325-1.408,0a2.317,2.317,0,0,0-.271,1.147A4.918,4.918,0,0,0,625.019,583.542Z" transform="translate(-565.41 -523.052)" fill="#fdc2cc"/>
    <path id="Path_2360" data-name="Path 2360" d="M666,370.123l2.843,2.193s4.224-.244,3.168-2.274a7.572,7.572,0,0,1-.816-2.87,6,6,0,0,1,0-1.111s-3.9-3.57-3.412.487a9.224,9.224,0,0,1,.067.938C667.908,370.532,666,370.123,666,370.123Z" transform="translate(-602.479 -329.861)" fill="#fdc2cc"/>
    <path id="Path_2361" data-name="Path 2361" d="M683.188,366.543a9.206,9.206,0,0,1,.067.938,2.662,2.662,0,0,0,1.476.443c.727,0,1.263-.708,1.746-1.178-.054-.674.121-.69.121-.69S682.7,362.481,683.188,366.543Z" transform="translate(-617.876 -329.854)" opacity="0.1"/>
    <circle id="Ellipse_192" data-name="Ellipse 192" cx="2.68" cy="2.68" r="2.68" transform="translate(64.175 32.547)" fill="#fdc2cc"/>
    <path id="Path_2362" data-name="Path 2362" d="M698.168,394.38s.447.041,1.34,1.259a4.408,4.408,0,0,0,2.843,1.381s.731-.325,1.543,3.33,1.056,6.092.65,6.5a5.913,5.913,0,0,1-2.847.976s-.244,5.117.162,6.01a1.385,1.385,0,0,1-.082,1.463l-3.57-.244a8.5,8.5,0,0,1-1.463-4.224c-.244-2.68-1.056-10.317-.65-11.21s2.193-3.168,2.112-3.412A14.671,14.671,0,0,1,698.168,394.38Z" transform="translate(-629.405 -356.595)" opacity="0.1"/>
    <path id="Path_2363" data-name="Path 2363" d="M699.625,394.14s.6-.016,1.494,1.2a4.4,4.4,0,0,0,2.842,1.381s.731-.325,1.543,3.33,1.056,6.092.65,6.5a5.911,5.911,0,0,1-2.843.975s-.244,5.117.162,6.01a1.385,1.385,0,0,1-.082,1.463l-3.57-.244a8.494,8.494,0,0,1-1.463-4.224c-.244-2.68-1.058-10.315-.652-11.2s2.193-3.168,2.112-3.412S699.625,394.14,699.625,394.14Z" transform="translate(-630.852 -356.379)" fill="#d6dbe6"/>
    <path id="Path_2364" data-name="Path 2364" d="M625,581.024a2.663,2.663,0,0,1,1.8-.657l-.118-.491s-1.04-.325-1.408,0A2.279,2.279,0,0,0,625,581.024Z" transform="translate(-565.661 -523.043)" opacity="0.1"/>
    <path id="Path_2365" data-name="Path 2365" d="M630.721,399.16a10.426,10.426,0,0,0-2.315,1.909,2.584,2.584,0,0,1-1.137.975s-1.705.893-1.705,4.061l-.893,4.467,4.061,5.686s.488-5.686.731-7.067.568-3.978.568-3.978,1.219-1.543,1.056-1.949S630.721,399.16,630.721,399.16Z" transform="translate(-565.364 -360.887)" opacity="0.1"/>
    <path id="Path_2366" data-name="Path 2366" d="M628.521,398.92s-2.16,1.2-2.4,1.771a2.586,2.586,0,0,1-1.137.975s-1.705.893-1.705,4.061l-.893,4.467-.162,8.529s1.463-1.381,2.518-.731,1.705-2.112,1.705-2.112.487-5.686.731-7.067.568-3.978.568-3.978,1.219-1.543,1.056-1.949A38.95,38.95,0,0,1,628.521,398.92Z" transform="translate(-563.164 -360.672)" fill="#d6dbe6"/>
    <path id="Path_2367" data-name="Path 2367" d="M672.314,329.2a2.653,2.653,0,0,1,.473-.467,1.45,1.45,0,0,1,.935-.455,1.4,1.4,0,0,1,.553.2q1.3.682,2.583,1.379a2.4,2.4,0,0,1,.866.661,2.548,2.548,0,0,1,.373,1.091,2.672,2.672,0,0,1,.037.8,1,1,0,0,1-.353.67c-.232.168-.549.169-.743.39a2.173,2.173,0,0,0-.241.461c-.079.155-.217.306-.374.278a.393.393,0,0,1-.274-.362,2.2,2.2,0,0,1,.03-.51,1.207,1.207,0,0,0-.186-.858c-.122-.155-.3-.249-.416-.408-.284-.383-.154-1.02-.465-1.38a.737.737,0,0,0-.714-.2,3.049,3.049,0,0,0-.714.306,5.306,5.306,0,0,1-.978.377c-.284.078-.612.263-.709-.114A2.515,2.515,0,0,1,672.314,329.2Z" transform="translate(-607.812 -297.235)" opacity="0.1"/>
    <path id="Path_2368" data-name="Path 2368" d="M673.111,328.411a2.652,2.652,0,0,1,.473-.467,1.45,1.45,0,0,1,.935-.455,1.4,1.4,0,0,1,.553.2c.863.455,1.58.024,2.583,1.379.214.29.645.353.866.661a2.549,2.549,0,0,1,.373,1.091,2.676,2.676,0,0,1,.037.8,1,1,0,0,1-.353.67c-.232.168-.549.169-.742.39a2.172,2.172,0,0,0-.241.461c-.08.155-.217.306-.374.278a.393.393,0,0,1-.274-.362,2.2,2.2,0,0,1,.03-.51,1.208,1.208,0,0,0-.186-.858c-.122-.155-.3-.249-.416-.408-.284-.383-.154-1.02-.465-1.38a.737.737,0,0,0-.714-.2,3.052,3.052,0,0,0-.714.306,5.307,5.307,0,0,1-.978.377c-.284.078-.612.263-.709-.114A2.509,2.509,0,0,1,673.111,328.411Z" transform="translate(-608.527 -296.526)" fill="#865a61"/>
    <path id="Path_2369" data-name="Path 2369" d="M734.847,458.09s1.083,2.762.27,3.9l-1.787-.408s1.625.487,1.381-.488A9.936,9.936,0,0,1,734.847,458.09Z" transform="translate(-662.942 -413.807)" opacity="0.1"/>
    <path id="Path_2370" data-name="Path 2370" d="M727.536,522.135s-2.356.162-3.006-.325a6.221,6.221,0,0,0,2.932,1.219Z" transform="translate(-655.039 -471.028)" opacity="0.1"/>
    <path id="Path_2371" data-name="Path 2371" d="M644.443,474a29.315,29.315,0,0,0-1.137,4.305c.082.568.244,6.823.244,6.823l.244-.082-.082-6.823Z" transform="translate(-582.096 -428.094)" opacity="0.1"/>
    <path id="Path_2372" data-name="Path 2372" d="M252.687,102.06,224.843,79.622a1.742,1.742,0,0,0-1.234-.51h-1.183a15.095,15.095,0,1,0-2.614,2.614v1.182a1.742,1.742,0,0,0,.51,1.234l27.844,22.438a1.734,1.734,0,0,0,2.462,0l2.052-2.05A1.751,1.751,0,0,0,252.687,102.06ZM210.516,79.112a9.287,9.287,0,1,1,6.575-2.72,9.3,9.3,0,0,1-6.575,2.72Z" transform="translate(-179.904 -51.587)" fill="url(#linear-gradient-5)"/>
    <path id="Path_2373" data-name="Path 2373" d="M254.687,100.06,226.843,77.622a1.742,1.742,0,0,0-1.234-.51h-1.183a15.095,15.095,0,1,0-2.614,2.614v1.182a1.742,1.742,0,0,0,.51,1.234l27.844,22.438a1.734,1.734,0,0,0,2.462,0l2.052-2.05A1.751,1.751,0,0,0,254.687,100.06ZM212.516,77.112a9.287,9.287,0,1,1,6.575-2.72,9.3,9.3,0,0,1-6.575,2.72Z" transform="translate(-181.7 -49.791)" fill="#3776a5"/>
    <path id="Path_2374" data-name="Path 2374" d="M707.269,473.97s-4.064-4.661-3.493-1.463a4.9,4.9,0,0,0,2.68,3.737C707.187,476.488,707.269,473.97,707.269,473.97Z" transform="translate(-636.352 -425.747)" fill="#fdc2cc"/>
    <path id="Path_2375" data-name="Path 2375" d="M724.47,454.51s.082,3.006.488,3.412-.244.893-.244.893l-1.625-.408s.408,2.68-1.3,2.356a5.177,5.177,0,0,0,2.274,1.219c1.137.163,1.056-.244,1.056-.244l1.705-2.031Z" transform="translate(-652.579 -410.592)" fill="#d6dbe6"/>
    <path id="Path_2376" data-name="Path 2376" d="M701.2,488.48l1.648-.362-.22-.76-1.02-.408-1.326.612Z" transform="translate(-628.857 -437.29)" fill="#d6dbe6"/>
    <path id="Path_2377" data-name="Path 2377" d="M280.78,138.748a6.9,6.9,0,0,0,1.385,4.159c.091.121.186.239.285.354.053.062.108.123.164.184q.042.047.086.092a6.806,6.806,0,0,0,.74.672l.018.013a6.905,6.905,0,0,0,2.054,1.1l.093.03c.057.019.116.037.174.053l.023.007c.03.008.059.017.09.024a6.906,6.906,0,0,0,1.819.242c.1,0,.209,0,.313-.007a6.858,6.858,0,0,0,1.608-.263h.01c.1-.029.193-.058.288-.091h.01l.087-.031a6.724,6.724,0,0,0,.959-.424l.019-.01.1-.056a6.918,6.918,0,0,0,1.259-.906l.034-.032a6.487,6.487,0,0,0,.593-.612l.021-.025c.017-.019.034-.039.05-.059.045-.053.088-.108.131-.163a6.935,6.935,0,1,0-12.415-4.254Z" transform="translate(-256.549 -120.808)" fill="#c0bccf"/>
    <path id="Path_2378" data-name="Path 2378" d="M295.429,154.607a3.372,3.372,0,0,0,2.194-1.084c.672-.931,1.129-.942,1.152-.942h0c.017-.124.03-.243.038-.353v-.015a.2.2,0,0,1-.095.042c-.135.02-.253-.107-.32-.243a1.894,1.894,0,0,0-.2-.4c-.166-.192-.439-.193-.636-.339a.875.875,0,0,1-.306-.583,1.6,1.6,0,0,1-.012-.255,2.822,2.822,0,0,1,.043-.544,2.24,2.24,0,0,1,.32-.95c.189-.266.558-.323.742-.575.86-1.179,1.473-.8,2.212-1.2a1.185,1.185,0,0,1,.473-.172,1.237,1.237,0,0,1,.8.4,2.286,2.286,0,0,1,.408.408,2.213,2.213,0,0,1,.322,1.238,1.854,1.854,0,0,1-.047.484c-.059.235-.219.219-.395.166a2.119,2.119,0,0,1-.72,2.66v.107a.188.188,0,0,0,0,.023,4.831,4.831,0,0,0,.016.488c.017.009,1.667.944,1.853,1.388a2.014,2.014,0,0,0,.878.765,2.744,2.744,0,0,1,1.122,1.689l-.021.025a6.542,6.542,0,0,1-.593.624l-.034.033a6.92,6.92,0,0,1-1.259.918c-.033.019-.066.039-.1.057l-.019.01a6.667,6.667,0,0,1-.959.431l-.087.032h-.01c-.095.034-.191.063-.288.092h-.01a6.753,6.753,0,0,1-1.608.267c-.1.005-.2.007-.313.007a6.8,6.8,0,0,1-1.813-.236c-.031-.007-.06-.016-.09-.024l-.023-.007c-.058-.016-.117-.035-.174-.054l-.093-.03a6.877,6.877,0,0,1-2.057-1.123l-.018-.013a6.85,6.85,0,0,1-.74-.683q-.044-.045-.086-.094c-.056-.061-.111-.123-.164-.187-.1-.117-.194-.237-.285-.36C294.966,154.4,295.429,154.607,295.429,154.607Z" transform="translate(-268.797 -134.437)" fill="url(#linear-gradient-6)"/>
    <path id="Path_2379" data-name="Path 2379" d="M332.654,186.043l2.194-1.692s-1.47.315-1.428-2.034a.188.188,0,0,1,0-.023,6.008,6.008,0,0,1,.051-.7c.376-3.134-2.632-.376-2.632-.376a4.487,4.487,0,0,1,0,.834v.022a5.828,5.828,0,0,1-.626,2.214C329.4,185.854,332.654,186.043,332.654,186.043Z" transform="translate(-300.822 -164.166)" fill="#fdc2cc"/>
    <path id="Path_2380" data-name="Path 2380" d="M337.773,181.615c.372.362.6,1.02,1.16,1.02a2.055,2.055,0,0,0,1.139-.342,6.014,6.014,0,0,1,.051-.7c.376-3.134-2.632-.376-2.632-.376S337.812,181.105,337.773,181.615Z" transform="translate(-307.475 -164.166)" opacity="0.1"/>
    <circle id="Ellipse_193" data-name="Ellipse 193" cx="2.068" cy="2.068" r="2.068" transform="translate(29.389 14.231)" fill="#fdc2cc"/>
    <path id="Path_2381" data-name="Path 2381" d="M327.059,150.789a2.269,2.269,0,0,0-.408-.4,1.237,1.237,0,0,0-.8-.39,1.2,1.2,0,0,0-.473.169c-.739.39-1.352.021-2.212,1.18-.184.248-.552.306-.741.566a2.17,2.17,0,0,0-.32.934,2.291,2.291,0,0,0-.032.683.856.856,0,0,0,.306.573c.2.144.47.145.636.334a1.852,1.852,0,0,1,.2.395c.067.133.186.258.32.239a.33.33,0,0,0,.235-.306,1.879,1.879,0,0,0-.026-.436,1.042,1.042,0,0,1,.159-.734c.1-.134.255-.213.356-.349.243-.327.133-.877.4-1.181a.631.631,0,0,1,.612-.17,2.608,2.608,0,0,1,.612.263,4.542,4.542,0,0,0,.837.323c.243.066.524.225.607-.1A2.156,2.156,0,0,0,327.059,150.789Z" transform="translate(-293.618 -137.139)" opacity="0.1"/>
    <path id="Path_2382" data-name="Path 2382" d="M327.059,149.789a2.268,2.268,0,0,0-.408-.4,1.237,1.237,0,0,0-.8-.39,1.2,1.2,0,0,0-.473.169c-.739.39-1.352.021-2.212,1.18-.184.248-.552.306-.741.566a2.17,2.17,0,0,0-.32.934,2.291,2.291,0,0,0-.032.683.856.856,0,0,0,.306.573c.2.144.47.145.636.334a1.852,1.852,0,0,1,.2.395c.067.133.186.258.32.239a.33.33,0,0,0,.235-.306,1.879,1.879,0,0,0-.026-.436,1.042,1.042,0,0,1,.159-.734c.1-.134.255-.213.356-.349.243-.327.133-.877.4-1.181a.631.631,0,0,1,.612-.17,2.608,2.608,0,0,1,.612.263,4.541,4.541,0,0,0,.837.323c.243.066.524.225.607-.1A2.156,2.156,0,0,0,327.059,149.789Z" transform="translate(-293.618 -136.241)" fill="#865a61"/>
    <path id="Path_2383" data-name="Path 2383" d="M326.411,213.77l-.041,1.566a6.907,6.907,0,0,0,1.819.242c.1,0,.209,0,.313-.007a6.859,6.859,0,0,0,1.608-.263h.01c.1-.029.193-.058.288-.091h.01l.087-.031a6.723,6.723,0,0,0,.959-.424l.019-.01.1-.056-.158-2.11.252-1.447L330.3,210.2a2.425,2.425,0,0,1-.259.314,1.734,1.734,0,0,1-.471.349c-.989.488-2.115-.288-2.675-.767l-.128-.113c-.145-.132-.227-.221-.227-.221l-.689,1.065Z" transform="translate(-297.022 -190.805)" opacity="0.1"/>
    <path id="Path_2384" data-name="Path 2384" d="M326.411,214.77l-.041,1.566a6.9,6.9,0,0,0,1.819.242c.1,0,.209,0,.313-.007a6.859,6.859,0,0,0,1.608-.263h.01c.1-.029.193-.058.288-.091h.01l.087-.031a6.724,6.724,0,0,0,.959-.424l.019-.01.1-.056-.158-2.11.252-1.447L330.3,211.2a2.425,2.425,0,0,1-.259.314,1.732,1.732,0,0,1-.471.349c-.989.488-2.115-.288-2.675-.767l-.128-.113c-.145-.132-.227-.221-.227-.221l-.689,1.065Z" transform="translate(-297.022 -191.703)" fill="#53526b"/>
    <path id="Path_2385" data-name="Path 2385" d="M294.36,206.716c.091.121.186.239.285.354.053.062.108.123.164.184q.042.047.086.092a6.8,6.8,0,0,0,.74.672l.018.013a6.907,6.907,0,0,0,2.054,1.1l.093.03c.057.019.116.037.174.053l.023.007c.03.008.059.017.09.025a6.906,6.906,0,0,0,1.819.242c.1,0,.209,0,.313-.007a9.813,9.813,0,0,0-.022-2.614,4.208,4.208,0,0,0-.252-.451,17.691,17.691,0,0,1-1.378-2.182,1.6,1.6,0,0,0,.042-.229c.054-.4.108-1.137.108-1.137h0c-.022,0-.479.011-1.152.927a3.4,3.4,0,0,1-2.194,1.066S294.912,204.659,294.36,206.716Z" transform="translate(-268.744 -184.618)" fill="#555388"/>
    <path id="Path_2386" data-name="Path 2386" d="M361.592,211.187s.076.6.174,1.319h.01l.087-.031a6.723,6.723,0,0,0,.959-.424l.019-.01.1-.056a6.917,6.917,0,0,0,1.259-.906l.034-.032a6.485,6.485,0,0,0,.593-.612l.021-.025a2.7,2.7,0,0,0-1.122-1.661,2,2,0,0,1-.878-.753c-.189-.439-1.854-1.366-1.854-1.366v.007c0,.079-.027.8-.066,1.521-.025.47-.057.942-.094,1.242a1.451,1.451,0,0,1-.053.288C360.653,210,361.592,211.187,361.592,211.187Z" transform="translate(-328.38 -187.994)" fill="#555388"/>
  </g>
</svg>
