<svg xmlns="http://www.w3.org/2000/svg" width="154.179" height="168.051" viewBox="0 0 154.179 168.051">
  <g id="Group_728" data-name="Group 728" transform="translate(0 0)">
    <path id="Path_377" data-name="Path 377" d="M539.552,396.18l-12.874,14.861S476.566,364.063,468.53,346.1s7.091-62.4,7.091-62.4l33.566,18.438Z" transform="translate(-429.906 -243.38)" fill="#ffb8b8"/>
    <path id="Path_378" data-name="Path 378" d="M358,243.4l-9.928.946s-5.2,11.346,10.873,12.292Z" transform="translate(-347.267 -215.374)" fill="#ffb8b8"/>
    <path id="Path_379" data-name="Path 379" d="M358,300.743l-9.928.946s-5.2,11.346,10.873,12.292Z" transform="translate(-347.267 -255.228)" fill="#ffb8b8"/>
    <path id="Path_380" data-name="Path 380" d="M358,362.739l-9.928.946s-5.2,11.346,10.873,12.292Z" transform="translate(-347.267 -298.314)" fill="#ffb8b8"/>
    <path id="Path_381" data-name="Path 381" d="M367.3,424.735l-9.928.946s-5.2,11.346,10.873,12.292Z" transform="translate(-353.73 -341.4)" fill="#ffb8b8"/>
    <path id="Path_382" data-name="Path 382" d="M366.6,184.108h.753V163.472A11.944,11.944,0,0,1,379.3,151.528h43.721a11.944,11.944,0,0,1,11.944,11.944V276.685a11.944,11.944,0,0,1-11.944,11.944H379.3a11.944,11.944,0,0,1-11.944-11.944V198.8H366.6Z" transform="translate(-360.703 -151.527)" fill="#3f3d56"/>
    <path id="Path_383" data-name="Path 383" d="M386.324,161.715h5.707a4.238,4.238,0,0,0,3.923,5.838H421a4.238,4.238,0,0,0,3.924-5.838h5.33a8.92,8.92,0,0,1,8.92,8.92V283.682a8.92,8.92,0,0,1-8.92,8.92H386.324a8.92,8.92,0,0,1-8.92-8.92h0V170.634a8.92,8.92,0,0,1,8.92-8.919Z" transform="translate(-368.212 -158.607)" fill="#fff"/>
    <rect id="Rectangle_338" data-name="Rectangle 338" width="18.825" height="4.543" transform="translate(30.666 34.778)" fill="#3776a5"/>
    <rect id="Rectangle_339" data-name="Rectangle 339" width="20.617" height="4.543" transform="translate(29.77 54.297)" fill="#e5e5e5"/>
    <rect id="Rectangle_340" data-name="Rectangle 340" width="46.015" height="4.543" transform="translate(17.071 64.055)" fill="#e5e5e5"/>
    <rect id="Rectangle_341" data-name="Rectangle 341" width="46.015" height="4.543" transform="translate(17.071 73.813)" fill="#e5e5e5"/>
    <path id="Path_384" data-name="Path 384" d="M654.539,368.885l-52.915-60.369-1.891-38.766-19.856-33.093L574.2,222.474s-13.237,1.418-2.364,28.365l4.491,14.419h0a66.091,66.091,0,0,0-6.146,27.831v33.041c0,7.78,22.162,36.28,26.477,42.754h57.876Z" transform="translate(-500.36 -200.833)" fill="#ffb8b8"/>
    <path id="Path_385" data-name="Path 385" d="M234.379,92.788l3.947-1.94-.135-.274-3.647,1.793-5.506-14.435-.285.109Z" transform="translate(-158.979 -54.161)" opacity="0.2"/>
    <rect id="Rectangle_342" data-name="Rectangle 342" width="0.305" height="6.232" transform="translate(0.75 29.111) rotate(-69.778)" opacity="0.2"/>
    <rect id="Rectangle_343" data-name="Rectangle 343" width="0.305" height="6.232" transform="translate(0.75 46.802) rotate(-69.778)" opacity="0.2"/>
    <rect id="Rectangle_344" data-name="Rectangle 344" width="0.305" height="6.232" transform="translate(0.75 65.713) rotate(-69.778)" opacity="0.2"/>
    <rect id="Rectangle_345" data-name="Rectangle 345" width="0.305" height="3.158" transform="translate(3.787 84.619) rotate(-64.361)" opacity="0.2"/>
    <circle id="Ellipse_89" data-name="Ellipse 89" cx="13.186" cy="13.186" r="13.186" transform="translate(26.915 91.185)" fill="#3776a5"/>
    <path id="Path_386" data-name="Path 386" d="M118.359,335.085l-3.946-5.075,2.295-1.785,1.869,2.4,6.313-6.664,2.111,2Z" transform="translate(-79.515 -225.147)" fill="#fff"/>
  </g>
</svg>
