<svg id="Group_9941" data-name="Group 9941" xmlns="http://www.w3.org/2000/svg" xmlns:xlink="http://www.w3.org/1999/xlink" width="18" height="18" viewBox="0 0 18 18">
  <defs>
    <clipPath id="clip-path">
      <rect id="Rectangle_470" data-name="Rectangle 470" width="7" height="7" transform="translate(0.485 0.486)" fill="#fff"/>
    </clipPath>
  </defs>
  <g id="Group_1283" data-name="Group 1283" transform="translate(10.514 10.514)" clip-path="url(#clip-path)">
    <path id="Path_2483" data-name="Path 2483" d="M12.313,16.717a1.68,1.68,0,0,1-1.255-.5,1.848,1.848,0,0,1-.475-1.3V12.391a1.846,1.846,0,0,1,.476-1.3,1.679,1.679,0,0,1,1.254-.5h2.673a1.68,1.68,0,0,1,1.255.5,1.848,1.848,0,0,1,.475,1.3v2.519a1.847,1.847,0,0,1-.475,1.3,1.681,1.681,0,0,1-1.255.5Zm-1.3-4.326v2.519a1.258,1.258,0,0,0,1.3,1.38h2.673a1.258,1.258,0,0,0,1.3-1.38V12.391a1.258,1.258,0,0,0-1.3-1.38H12.313A1.259,1.259,0,0,0,11.011,12.391Zm2.427,2.331,0-.028v-.832H12.6a.215.215,0,0,1-.029-.426l.029,0h.831V12.6a.215.215,0,0,1,.426-.029l0,.029v.831H14.7a.215.215,0,0,1,.029.426l-.029,0h-.831v.831a.215.215,0,0,1-.426.029Z" transform="translate(-9.97 -9.97)" fill="#2d3f7b"/>
  </g>
  <path id="Path_2484" data-name="Path 2484" d="M16.2,8.1a8.066,8.066,0,0,1-.778,3.468h-2.8a1.051,1.051,0,0,0-1.051,1.051v-.3a7.027,7.027,0,0,1-2.629.407s-2.711-.258-3.73-1.025a.732.732,0,0,0-.828,0,.366.366,0,0,0,0,.62c1.029,1.065,5.087,1.881,7.19.83v2.274A8.1,8.1,0,1,1,16.2,8.1ZM6.309,5.257A1.051,1.051,0,1,0,5.257,6.309,1.051,1.051,0,0,0,6.309,5.257Zm5.257-1.051a1.051,1.051,0,1,1-1.051,1.051A1.051,1.051,0,0,1,11.566,4.206Z" fill="#2d3f7b" fill-rule="evenodd"/>
</svg>
