<svg id="badge" xmlns="http://www.w3.org/2000/svg" width="9.724" height="13.665" viewBox="0 0 9.724 13.665">
  <path id="Path_2138" data-name="Path 2138" d="M22.364,2.25l.673,1.268,1.44.175-1.057.953.212,1.409-1.268-.793L21.1,6.055l.212-1.409L20.25,3.693l1.48-.175Z" transform="translate(-14.753 -2.25)"/>
  <path id="Path_2139" data-name="Path 2139" d="M13.114,7l-.819-.21a2.957,2.957,0,1,1-2.125-3.606l.211-.819A3.8,3.8,0,0,0,6.892,8.878v5.2l2.537-1.691,2.537,1.691v-5.2A3.789,3.789,0,0,0,13.114,7Zm-1.994,5.5L9.428,11.375,7.737,12.5V9.453a3.773,3.773,0,0,0,3.382,0Z" transform="translate(-5.623 -0.417)"/>
</svg>
