<svg id="camera-to-take-photos" xmlns="http://www.w3.org/2000/svg" width="20.94" height="17"
    viewBox="0 0 20.94 17">
    <path id="Path_15" data-name="Path 15"
        d="M18.422,6.35H15.395V6.039a2.518,2.518,0,0,0-2.517-2.517H8.063A2.518,2.518,0,0,0,5.545,6.039V6.35H2.517A2.517,2.517,0,0,0,0,8.868V18a2.518,2.518,0,0,0,2.517,2.517H18.423A2.518,2.518,0,0,0,20.94,18V8.868A2.519,2.519,0,0,0,18.422,6.35Zm-7.953,11.56a4.755,4.755,0,1,1,4.755-4.755A4.759,4.759,0,0,1,10.469,17.911Zm2.517-4.755a2.517,2.517,0,1,1-2.517-2.517A2.521,2.521,0,0,1,12.986,13.156Z"
        transform="translate(0 -3.522)" fill="#3776a5" />
</svg>
