<svg id="Camera" xmlns="http://www.w3.org/2000/svg" width="28" height="26" viewBox="0 0 28 26">
    <g id="Camera-2" data-name="Camera" transform="translate(-0.167 0.25)">
        <path id="Camera-3" data-name="Camera"
            d="M21.9,26H6.1A6.206,6.206,0,0,1,0,19.709V11.138A6.206,6.206,0,0,1,6.1,4.848a.277.277,0,0,0,.267-.173L6.454,4.5l.116-.253c.366-.8.779-1.694,1.032-2.214A3.4,3.4,0,0,1,10.7,0H17.29A3.41,3.41,0,0,1,20.4,2.034c.22.454.555,1.184.878,1.89l.2.433.141.317a.314.314,0,0,0,.28.173A6.206,6.206,0,0,1,28,11.138v8.571A6.206,6.206,0,0,1,21.9,26ZM14,9.248a5.406,5.406,0,0,0-3.906,1.674,5.678,5.678,0,0,0-1.6,4,5.779,5.779,0,0,0,1.61,4.012A5.438,5.438,0,0,0,14,20.589a5.371,5.371,0,0,0,3.878-1.659,5.783,5.783,0,0,0,.014-8.022A5.383,5.383,0,0,0,14,9.248ZM21.854,8.9a1.306,1.306,0,1,0,1.275,1.313A1.289,1.289,0,0,0,21.854,8.9ZM14,18.425A3.329,3.329,0,0,1,11.592,17.4a3.538,3.538,0,0,1-.994-2.482V14.9a3.431,3.431,0,0,1,.98-2.453,3.342,3.342,0,0,1,4.83-.014,3.543,3.543,0,0,1,.994,2.482A3.477,3.477,0,0,1,14,18.425Z"
            transform="translate(0.167 -0.25)" fill="#fff" />
    </g>
</svg>
