<svg id="camera-Regular" xmlns="http://www.w3.org/2000/svg" width="24" height="24"
    viewBox="0 0 24 24">
    <rect id="Path" width="24" height="24" fill="rgba(255,255,255,0)" />
    <path id="camera-Regular_1_"
        d="M460.413,1376.267l-1.2-1.793a2.745,2.745,0,0,0-2.288-1.225h-3.859a2.745,2.745,0,0,0-2.288,1.225l-1.2,1.793a4.756,4.756,0,0,0-4.337,4.732v5a4.756,4.756,0,0,0,4.75,4.75h10a4.756,4.756,0,0,0,4.75-4.75v-5A4.759,4.759,0,0,0,460.413,1376.267ZM463.25,1386a3.254,3.254,0,0,1-3.25,3.25H450a3.254,3.254,0,0,1-3.25-3.25v-5a3.254,3.254,0,0,1,3.25-3.25.749.749,0,0,0,.624-.334l1.406-2.109a1.246,1.246,0,0,1,1.04-.557h3.859a1.246,1.246,0,0,1,1.04.557l1.406,2.109a.751.751,0,0,0,.624.334,3.254,3.254,0,0,1,3.25,3.25v5Zm-8.25-6.75a3.75,3.75,0,1,0,3.75,3.75A3.754,3.754,0,0,0,455,1379.25Zm0,6a2.25,2.25,0,1,1,2.25-2.25A2.252,2.252,0,0,1,455,1385.25Zm7-5.25a1,1,0,1,1-1-1A1,1,0,0,1,462,1380Z"
        transform="translate(-443 -1370)" fill="#41416e" />
</svg>
