<svg xmlns="http://www.w3.org/2000/svg" width="26.612" height="17.741" viewBox="0 0 26.612 17.741">
  <path id="Path_25" data-name="Path 25" d="M21.168,21.741H11.2a3.256,3.256,0,0,1-3.1-2.448L4.722,7.109a1.006,1.006,0,0,0-.972-.744H1.109A1.147,1.147,0,0,1,0,5.183,1.147,1.147,0,0,1,1.109,4H3.75a3.255,3.255,0,0,1,3.1,2.448l.631,2.283H24.441a2.144,2.144,0,0,1,1.755.94,2.357,2.357,0,0,1,.319,2.006l-2.287,7.744a3.24,3.24,0,0,1-3.06,2.319ZM24.442,11.1h.011Z" transform="translate(0 -4)" fill="#cfd7ed"/>
</svg>
