<svg xmlns="http://www.w3.org/2000/svg" width="26.125" height="26.125" viewBox="0 0 26.125 26.125">
    <path id="comments-Filled_1_"
        d="M519.625,2783.187v13.75a.672.672,0,0,1-.426.632.6.6,0,0,1-.261.055.7.7,0,0,1-.495-.206l-2.489-2.543H503.813a4.818,4.818,0,0,1-4.813-4.813h10.313a6.878,6.878,0,0,0,6.875-6.875v-4.606A4.823,4.823,0,0,1,519.625,2783.187Zm-5.5,0v-6.875a4.818,4.818,0,0,0-4.813-4.813h-11a4.818,4.818,0,0,0-4.812,4.813v13.75a.671.671,0,0,0,.426.632.6.6,0,0,0,.261.056.7.7,0,0,0,.495-.207l2.489-2.544h12.141A4.818,4.818,0,0,0,514.125,2783.187Z"
        transform="translate(-493.5 -2771.5)" fill="#cfd7ed" />
</svg>
