<svg xmlns="http://www.w3.org/2000/svg" width="19.5" height="19.5" viewBox="0 0 19.5 19.5">
    <g id="Group_1216" data-name="Group 1216" transform="translate(-244.25 -650.25)">
        <g id="calendar-Regular" transform="translate(244.25 650.25)">
            <path id="calendar-Regular_1_"
                d="M412,1229.25h-.25V1229a.75.75,0,0,0-1.5,0v.25h-6.5V1229a.75.75,0,0,0-1.5,0v.25H402a4.756,4.756,0,0,0-4.75,4.75v9a4.756,4.756,0,0,0,4.75,4.75h10a4.756,4.756,0,0,0,4.75-4.75v-9A4.756,4.756,0,0,0,412,1229.25Zm-10,1.5h.25V1232a.75.75,0,0,0,1.5,0v-1.25h6.5V1232a.75.75,0,0,0,1.5,0v-1.25H412a3.254,3.254,0,0,1,3.25,3.25v.25h-16.5V1234A3.254,3.254,0,0,1,402,1230.75Zm10,15.5H402a3.254,3.254,0,0,1-3.25-3.25v-7.25h16.5V1243A3.254,3.254,0,0,1,412,1246.25Z"
                transform="translate(-397.25 -1228.25)" fill="#41416e" />
        </g>
        <path id="heart-Filled_1_"
            d="M308.384,2487.355c-.348,1.734-2.179,2.951-2.949,3.4a.942.942,0,0,1-.935,0c-.771-.444-2.6-1.661-2.95-3.4a2.456,2.456,0,0,1,.53-2.056,2.213,2.213,0,0,1,1.71-.8c.419,0,.824.6,1.177.8.354-.2.758-.8,1.177-.8a2.213,2.213,0,0,1,1.71.8A2.457,2.457,0,0,1,308.384,2487.355Z"
            transform="translate(-50.966 -1824.5)" fill="#41416e" />
    </g>
</svg>
