<svg height="12.241" viewBox="0 0 15.807 12.241" width="15.807" xmlns="http://www.w3.org/2000/svg"><g fill="#3776a5" fill-rule="evenodd"><path d="m17.44 14.72a2.72 2.72 0 1 1 -2.72-2.72 2.72 2.72 0 0 1 2.72 2.72zm-1.36 0a1.36 1.36 0 1 1 -1.36-1.36 1.36 1.36 0 0 1 1.36 1.36z" transform="translate(-6.817 -8.6)"/><path d="m8.471 4.5a8.164 8.164 0 0 1 7.9 6.12 8.163 8.163 0 0 1 -15.807 0 8.163 8.163 0 0 1 7.907-6.12zm0 10.881a6.8 6.8 0 0 1 -6.49-4.76 6.8 6.8 0 0 1 12.979 0 6.8 6.8 0 0 1 -6.489 4.76z" transform="translate(-.567 -4.5)"/></g></svg>