<svg id="film-Regular" xmlns="http://www.w3.org/2000/svg" width="24" height="24"
    viewBox="0 0 24 24">
    <rect id="Path" width="24" height="24" fill="rgba(255,255,255,0)" />
    <path id="film-Regular_1_"
        d="M268,1372.25H258a4.756,4.756,0,0,0-4.75,4.75v10a4.756,4.756,0,0,0,4.75,4.75h10a4.756,4.756,0,0,0,4.75-4.75v-10A4.756,4.756,0,0,0,268,1372.25Zm.75,10.5h2.5v2.5h-2.5Zm0-4h2.5v2.5h-2.5Zm2.5-1.75v.25h-2.5v-3.4A3.249,3.249,0,0,1,271.25,1377Zm-4-3.25v7.5h-8.5v-7.5Zm-10,11.5h-2.5v-2.5h2.5Zm-2.5-4v-2.5h2.5v2.5Zm2.5-7.4v3.4h-2.5V1377A3.249,3.249,0,0,1,257.25,1373.846ZM254.75,1387v-.25h2.5v3.4A3.251,3.251,0,0,1,254.75,1387Zm4,3.25v-7.5h8.5v7.5Zm10-.1v-3.4h2.5v.25A3.251,3.251,0,0,1,268.75,1390.154Z"
        transform="translate(-251 -1370)" fill="#41416e" />
</svg>
