<svg id="heart-Regular" xmlns="http://www.w3.org/2000/svg" width="24" height="24"
    viewBox="0 0 24 24">
    <rect id="Path" width="24" height="24" fill="rgba(255,255,255,0)" />
    <path id="heart-Regular_1_"
        d="M319.11,1015.6a6.245,6.245,0,0,0-4.882-2.346,6.761,6.761,0,0,0-3.228.808,6.754,6.754,0,0,0-3.228-.808,6.243,6.243,0,0,0-4.882,2.346,7.338,7.338,0,0,0-1.505,6.013c.975,5,6.063,8.486,8.206,9.754a2.767,2.767,0,0,0,2.819,0c2.142-1.269,7.231-4.758,8.206-9.754A7.342,7.342,0,0,0,319.11,1015.6Zm.033,5.726c-.858,4.4-5.529,7.585-7.5,8.75a1.266,1.266,0,0,1-1.29,0c-1.969-1.165-6.64-4.351-7.5-8.75a5.824,5.824,0,0,1,1.19-4.772,4.77,4.77,0,0,1,3.725-1.8,5.231,5.231,0,0,1,2.824.81.752.752,0,0,0,.808,0,5.23,5.23,0,0,1,2.824-.81,4.772,4.772,0,0,1,3.725,1.8A5.827,5.827,0,0,1,319.143,1021.322Z"
        transform="translate(-299 -1010)" fill="#41416e" />
</svg>
