<svg xmlns="http://www.w3.org/2000/svg" width="25.8" height="36.859" viewBox="0 0 25.8 36.859">
    <g id="Iconly_Bulk_Location" data-name="Iconly/Bulk/Location" transform="translate(0)">
        <g id="Location" transform="translate(0)">
            <path id="Path_34175"
                d="M12.977,31.33h0a1.517,1.517,0,0,1-.72-.219A34.01,34.01,0,0,1,3.341,22.73,17,17,0,0,1,0,13.148,13.207,13.207,0,0,1,6.509,1.727a12.7,12.7,0,0,1,12.964.106,13.369,13.369,0,0,1,4.654,4.928A13.673,13.673,0,0,1,25.8,13.382c-.08,4.124-2.17,8.558-5.883,12.486a34.557,34.557,0,0,1-6.19,5.2,2.161,2.161,0,0,1-.75.265Zm-.09-22.4a4.316,4.316,0,0,0-3.094,1.3A4.506,4.506,0,0,0,8.836,15.1a4.367,4.367,0,0,0,4.049,2.76h.031a4.289,4.289,0,0,0,3.073-1.294,4.524,4.524,0,0,0-1.415-7.29A4.291,4.291,0,0,0,12.887,8.935Z"
                transform="translate(0)" fill="#3776a5" />
            <ellipse id="Ellipse_743" cx="9.215" cy="1.843" rx="9.215" ry="1.843"
                transform="translate(3.686 33.173)" fill="#3776a5" opacity="0.4" />
        </g>
    </g>
</svg>
