<svg id="Message" xmlns="http://www.w3.org/2000/svg" width="43" height="39" viewBox="0 0 43 39">
  <g id="Message-2" data-name="Message" transform="translate(0.334 -0.5)">
    <path id="Message-3" data-name="Message" d="M32.119,39H10.879A10.923,10.923,0,0,1,0,28.059V10.941A10.923,10.923,0,0,1,10.879,0H32.119A10.913,10.913,0,0,1,43,10.941V28.059A10.924,10.924,0,0,1,32.119,39ZM8.674,11.365a1.57,1.57,0,0,0-1.149.487,1.665,1.665,0,0,0-.153,2.166l.283.281,9.782,7.693a6.7,6.7,0,0,0,4.193,1.472,6.8,6.8,0,0,0,4.211-1.472l9.7-7.821L35.713,14a1.687,1.687,0,0,0-.025-2.166,1.782,1.782,0,0,0-1.136-.564l-.091,0a1.626,1.626,0,0,0-1.117.435L23.65,19.5a3.349,3.349,0,0,1-2.143.781A3.407,3.407,0,0,1,19.35,19.5L9.675,11.7A1.664,1.664,0,0,0,8.674,11.365Z" transform="translate(-0.334 0.5)" fill="#200e32"/>
  </g>
</svg>
