<svg id="microphone-Regular" xmlns="http://www.w3.org/2000/svg" width="24" height="24"
    viewBox="0 0 24 24">
    <rect id="Path" width="24" height="24" fill="rgba(255,255,255,0)" />
    <path id="microphone-Regular_1_"
        d="M647,1385.75a4.756,4.756,0,0,0,4.75-4.75v-4a4.75,4.75,0,0,0-9.5,0v4A4.756,4.756,0,0,0,647,1385.75Zm-3.25-8.75a3.25,3.25,0,0,1,6.5,0v4a3.25,3.25,0,0,1-6.5,0Zm4,11.712v1.538H651a.75.75,0,0,1,0,1.5h-8a.75.75,0,0,1,0-1.5h3.25v-1.538a7.76,7.76,0,0,1-7-7.712.75.75,0,0,1,1.5,0,6.25,6.25,0,0,0,12.5,0,.75.75,0,0,1,1.5,0A7.76,7.76,0,0,1,647.75,1388.712Z"
        transform="translate(-635 -1370)" fill="#41416e" />
</svg>
