<svg id="minus-square-Regular" xmlns="http://www.w3.org/2000/svg" width="21" height="21"
    viewBox="0 0 21 21">
    <rect id="Path" width="21" height="21" fill="rgba(255,255,255,0)" />
    <path id="minus-square-Regular_1_"
        d="M648.406,1012.25h-5.25a5.913,5.913,0,0,0-5.906,5.906v5.25a5.913,5.913,0,0,0,5.906,5.906h5.25a5.913,5.913,0,0,0,5.906-5.906v-5.25A5.913,5.913,0,0,0,648.406,1012.25ZM653,1023.406a4.6,4.6,0,0,1-4.594,4.594h-5.25a4.6,4.6,0,0,1-4.594-4.594v-5.25a4.6,4.6,0,0,1,4.594-4.594h5.25a4.6,4.6,0,0,1,4.594,4.594Zm-3.062-2.625a.656.656,0,0,1-.656.656h-7a.656.656,0,0,1,0-1.312h7A.656.656,0,0,1,649.938,1020.781Z"
        transform="translate(-635.281 -1010.281)" fill="#41416e" />
</svg>
