<svg xmlns="http://www.w3.org/2000/svg" width="14" height="11.2" viewBox="0 0 14 11.2">
  <path id="photo" d="M4.667,3.267a1.394,1.394,0,0,1-1.4,1.4,1.394,1.394,0,0,1-1.4-1.4,1.394,1.394,0,0,1,1.4-1.4,1.394,1.394,0,0,1,1.4,1.4Zm7.467,2.8V9.333H1.867v-1.4L4.2,5.6,5.367,6.767,9.1,3.033Zm.7-5.133H1.167a.236.236,0,0,0-.233.233v8.867a.236.236,0,0,0,.233.233H12.833a.236.236,0,0,0,.233-.233V1.167a.236.236,0,0,0-.233-.233ZM14,1.167v8.867A1.17,1.17,0,0,1,12.833,11.2H1.167a1.123,1.123,0,0,1-.824-.343A1.123,1.123,0,0,1,0,10.033V1.167A1.123,1.123,0,0,1,.343.343,1.123,1.123,0,0,1,1.167,0H12.833a1.123,1.123,0,0,1,.824.343A1.123,1.123,0,0,1,14,1.167Z"/>
</svg>
