<svg id="plus-square-Filled" xmlns="http://www.w3.org/2000/svg" width="21" height="21" viewBox="0 0 21 21">
  <rect id="Path" width="21" height="21" fill="rgba(255,255,255,0)"/>
  <path id="plus-square-Filled_1_" d="M600.438,2483.5h-5.25a5.7,5.7,0,0,0-5.687,5.688v5.25a5.7,5.7,0,0,0,5.688,5.688h5.25a5.7,5.7,0,0,0,5.688-5.687v-5.25A5.7,5.7,0,0,0,600.438,2483.5Zm.875,9.188h-2.625v2.625a.875.875,0,0,1-1.75,0v-2.625h-2.625a.875.875,0,0,1,0-1.75h2.625v-2.625a.875.875,0,0,1,1.75,0v2.625h2.625a.875.875,0,0,1,0,1.75Z" transform="translate(-587.313 -2481.313)" fill="#41416e"/>
</svg>
