<svg xmlns="http://www.w3.org/2000/svg" width="26.684" height="26.684" viewBox="0 0 26.684 26.684">
  <path id="plus-square-Filled_1_" d="M607.056,2483.5h-8.427a9.147,9.147,0,0,0-9.129,9.129v8.427a9.147,9.147,0,0,0,9.129,9.129h8.427a9.147,9.147,0,0,0,9.129-9.129v-8.427A9.147,9.147,0,0,0,607.056,2483.5Zm1.4,14.747h-4.213v4.213a1.4,1.4,0,0,1-2.809,0v-4.213h-4.213a1.4,1.4,0,1,1,0-2.809h4.213v-4.213a1.4,1.4,0,1,1,2.809,0v4.213h4.213a1.4,1.4,0,1,1,0,2.809Z" transform="translate(-589.5 -2483.5)" fill="#3776a5"/>
</svg>
