<svg xmlns="http://www.w3.org/2000/svg" xmlns:xlink="http://www.w3.org/1999/xlink" width="33.264"
    height="44" viewBox="0 0 33.264 44">
    <defs>
        <linearGradient id="linear-gradient" x1="0.313" y1="0.076" x2="0.757" y2="0.697"
            gradientUnits="objectBoundingBox">
            <stop offset="0" stop-color="#add3ef" />
            <stop offset="1" stop-color="#3776a5" />
        </linearGradient>
        <linearGradient id="linear-gradient-2" x1="0.271" y1="0.054" x2="0.702" y2="0.903"
            gradientUnits="objectBoundingBox">
            <stop offset="0" stop-color="#5993be" />
            <stop offset="1" stop-color="#8fc0e4" />
        </linearGradient>
        <linearGradient id="linear-gradient-3" x1="0.212" y1="0.125" x2="0.728" y2="0.928"
            gradientUnits="objectBoundingBox">
            <stop offset="0" stop-color="#497fb1" />
            <stop offset="1" stop-color="#c7defa" />
        </linearGradient>
    </defs>
    <g id="Group_1203" data-name="Group 1203" transform="translate(-1265.562 -92.29)">
        <path id="Path_2" data-name="Path 2"
            d="M85.059,278.813a18.082,18.082,0,0,0-3.681,10.98v26.5h0L86,305.651l1.135-2.615a16,16,0,0,0,20.855.76,17.579,17.579,0,0,0,6.139-9.686,18.349,18.349,0,0,0-.993-11.6,17.136,17.136,0,0,0-7.686-8.374,15.89,15.89,0,0,0-10.978-1.447A16.532,16.532,0,0,0,85.059,278.813Zm18.235,19.51a1.185,1.185,0,0,0,.225-.172,9.551,9.551,0,0,0,1.039-.952,10.367,10.367,0,0,0,0-13.962q-.316-.335-.658-.635v-.333a1.282,1.282,0,0,0-.347-.882,1.142,1.142,0,0,0-1.578-.093,8.734,8.734,0,0,0-8.051-.038,1.141,1.141,0,0,0-1.531.13,1.282,1.282,0,0,0-.347.882v.228a9.618,9.618,0,0,0-.78.74,10.368,10.368,0,0,0,0,13.963,8.926,8.926,0,0,0,12.028,1.124Z"
            transform="translate(1184.184 -180.002)" fill-rule="evenodd" />
        <path id="Path_3" data-name="Path 3"
            d="M85.059,278.811a18.083,18.083,0,0,0-3.681,10.98v26.5h0l5.756-13.255a16,16,0,0,0,20.855.76,17.579,17.579,0,0,0,6.139-9.686,18.348,18.348,0,0,0-.993-11.6,17.136,17.136,0,0,0-7.686-8.374,15.89,15.89,0,0,0-10.978-1.447A16.533,16.533,0,0,0,85.059,278.811Zm18.235,19.51a1.182,1.182,0,0,0,.225-.172,9.555,9.555,0,0,0,1.039-.952,10.367,10.367,0,0,0,0-13.962q-.316-.335-.658-.635v-.333a1.282,1.282,0,0,0-.347-.882,1.142,1.142,0,0,0-1.578-.093,8.734,8.734,0,0,0-8.051-.038,1.141,1.141,0,0,0-1.531.13,1.282,1.282,0,0,0-.347.882v.228a9.6,9.6,0,0,0-.78.74,10.368,10.368,0,0,0,0,13.962,8.926,8.926,0,0,0,12.028,1.124Z"
            transform="translate(1184.184 -180)" fill-rule="evenodd" fill="url(#linear-gradient)" />
        <path id="Path_4" data-name="Path 4"
            d="M140.7,321.483a11.075,11.075,0,1,0,3.125,7.711A10.932,10.932,0,0,0,140.7,321.483Zm-2.718,7.711a4.967,4.967,0,1,1-4.966-5.037A5,5,0,0,1,137.981,329.194Z"
            transform="translate(1149.251 -219.196)" fill-rule="evenodd"
            fill="url(#linear-gradient-2)" />
        <path id="Path_5" data-name="Path 5"
            d="M131.023,316.469l0-.3h-.005Zm-10.809,10.963.292,0v-.005ZM131.023,338.4l0,.3h.005Zm10.809-10.963-.292,0v.005ZM131.02,316.766a10.642,10.642,0,0,1,7.48,3.166l.413-.419a11.223,11.223,0,0,0-7.888-3.339Zm-7.475,3.165a10.643,10.643,0,0,1,7.48-3.165l-.005-.593a11.223,11.223,0,0,0-7.888,3.339Zm-3.039,7.5a10.543,10.543,0,0,1,3.039-7.5l-.413-.419a11.139,11.139,0,0,0-3.21,7.923Zm3.039,7.5a10.543,10.543,0,0,1-3.039-7.5l-.584-.005a11.139,11.139,0,0,0,3.21,7.923Zm7.48,3.165a10.642,10.642,0,0,1-7.48-3.165l-.413.419a11.222,11.222,0,0,0,7.888,3.339Zm7.475-3.166a10.641,10.641,0,0,1-7.48,3.166l.005.593a11.221,11.221,0,0,0,7.888-3.339Zm3.039-7.5a10.542,10.542,0,0,1-3.039,7.5l.413.419a11.14,11.14,0,0,0,3.21-7.923Zm-3.039-7.5a10.543,10.543,0,0,1,3.039,7.5l.584.005a11.14,11.14,0,0,0-3.21-7.923Zm-7.477,12.834a5.3,5.3,0,0,0,5.259-5.333H135.7a4.708,4.708,0,0,1-4.674,4.741Zm-5.259-5.333a5.3,5.3,0,0,0,5.259,5.333v-.593a4.708,4.708,0,0,1-4.674-4.741Zm5.259-5.333a5.3,5.3,0,0,0-5.259,5.333h.584a4.708,4.708,0,0,1,4.674-4.741Zm5.259,5.333a5.3,5.3,0,0,0-5.259-5.333v.593a4.708,4.708,0,0,1,4.674,4.741Z"
            transform="translate(1151.2 -217.44)" fill="url(#linear-gradient-3)" />
    </g>
</svg>
