<svg id="store-Regular" xmlns="http://www.w3.org/2000/svg" width="24" height="24"
    viewBox="0 0 24 24">
    <rect id="Path" width="24" height="24" fill="rgba(255,255,255,0)" />
    <path id="store-Regular_1_"
        d="M656.75,1163a.742.742,0,0,0-.039-.238l-1.088-3.265a4.744,4.744,0,0,0-4.506-3.248h-8.234a4.744,4.744,0,0,0-4.506,3.248l-1.088,3.265a.742.742,0,0,0-.039.238,3.734,3.734,0,0,0,1,2.53V1172a3.754,3.754,0,0,0,3.75,3.75h3.777V1172a1.25,1.25,0,0,1,2.5,0v3.75H652a3.754,3.754,0,0,0,3.75-3.75v-6.469A3.735,3.735,0,0,0,656.75,1163Zm-16.95-3.029a3.246,3.246,0,0,1,3.083-2.222h8.234a3.246,3.246,0,0,1,3.083,2.222l1.047,3.141a2.222,2.222,0,0,1-2.237,2.137,2.482,2.482,0,0,1-2.3-1.5.749.749,0,0,0-.708-.5h0a.749.749,0,0,0-.707.507,2.5,2.5,0,0,1-4.582,0,.749.749,0,0,0-.707-.507h0a.75.75,0,0,0-.708.5,2.482,2.482,0,0,1-2.3,1.5,2.222,2.222,0,0,1-2.237-2.137ZM652,1174.25h-2.223V1172a2.75,2.75,0,0,0-5.5,0v2.25H642a2.252,2.252,0,0,1-2.25-2.25v-5.479a3.675,3.675,0,0,0,1.24.229,4.066,4.066,0,0,1,6.01,0,4.066,4.066,0,0,1,6.01,0,3.675,3.675,0,0,0,1.24-.229V1172A2.253,2.253,0,0,1,652,1174.25Z"
        transform="translate(-635 -1154)" fill="#41416e" />
</svg>
