<svg xmlns="http://www.w3.org/2000/svg" width="23.374" height="23.374" viewBox="0 0 23.374 23.374">
  <path id="transgender" d="M18.946,2.25V3.92h3.828L17.43,9.263a5.8,5.8,0,0,0-6.986,0L9.274,8.094l2.159-2.159L10.252,4.754,8.094,6.913,5.1,3.92H8.928V2.25H2.25V8.928H3.92V5.1L6.913,8.094,4.754,10.251l1.181,1.181L8.094,9.274l1.169,1.169a5.826,5.826,0,0,0,3.839,9.27V21.45H9.763v1.67H13.1v2.5h1.67v-2.5h3.339V21.45H14.772V19.714a5.826,5.826,0,0,0,3.839-9.27L23.955,5.1V8.928h1.67V2.25ZM13.937,18.111a4.174,4.174,0,1,1,4.174-4.174,4.174,4.174,0,0,1-4.174,4.174Z" transform="translate(-2.25 -2.25)" fill="#fff"/>
</svg>
