<svg xmlns="http://www.w3.org/2000/svg" width="10" height="10" viewBox="0 0 20 18">
  <path id="users-three-Filled_1_" d="M799.35,2703.71a3.694,3.694,0,0,1-2.61,3.53,5.911,5.911,0,0,0,.26-1.74,5.99,5.99,0,0,0-2.93-5.15,3.77,3.77,0,0,1,1.58-.35A3.706,3.706,0,0,1,799.35,2703.71Zm-.75,4.59a1.646,1.646,0,0,0-1.25.15,3.331,3.331,0,0,1-1.39.41,5.1,5.1,0,0,1-.7.85,5.425,5.425,0,0,1,3.66,4.29h.69a1.228,1.228,0,0,0,1.09-.63,2.552,2.552,0,0,0,.3-1.21v-.71A3.241,3.241,0,0,0,798.6,2708.3Zm-10.67-7.95a3.77,3.77,0,0,0-1.58-.35,3.7,3.7,0,0,0-1.09,7.24,5.911,5.911,0,0,1-.26-1.74A5.99,5.99,0,0,1,787.93,2700.35Zm-1.19,9.36a5.1,5.1,0,0,1-.7-.85,3.331,3.331,0,0,1-1.39-.41,1.646,1.646,0,0,0-1.25-.15,3.241,3.241,0,0,0-2.4,3.15v.71a2.551,2.551,0,0,0,.3,1.21,1.224,1.224,0,0,0,1.08.63h.7A5.425,5.425,0,0,1,786.74,2709.71Zm7.84,1.36a2.331,2.331,0,0,0-.53-.07,2.034,2.034,0,0,0-.99.26,4.268,4.268,0,0,1-4.12,0,2.034,2.034,0,0,0-.99-.26,2.332,2.332,0,0,0-.53.07,3.955,3.955,0,0,0-2.92,3.83v.87a3.073,3.073,0,0,0,.37,1.46,1.455,1.455,0,0,0,1.31.77h9.64a1.455,1.455,0,0,0,1.31-.77,3.073,3.073,0,0,0,.37-1.46v-.87A3.955,3.955,0,0,0,794.58,2711.07Zm.92-5.57a4.5,4.5,0,1,0-4.5,4.5A4.5,4.5,0,0,0,795.5,2705.5Z" transform="translate(-781 -2700)" fill="#3675a4"/>
</svg>
