<svg id="user" xmlns="http://www.w3.org/2000/svg" width="9.35" height="13.089"
    viewBox="0 0 9.35 13.089">
    <path id="Path_21" data-name="Path 21"
        d="M13.4,3.185A2.337,2.337,0,1,1,11.06,5.522,2.337,2.337,0,0,1,13.4,3.185m0-.935A3.272,3.272,0,1,0,16.67,5.522,3.272,3.272,0,0,0,13.4,2.25Z"
        transform="translate(-8.723 -2.25)" />
    <path id="Path_22" data-name="Path 22"
        d="M16.1,25.86h-.935V23.522a2.337,2.337,0,0,0-2.337-2.337h-2.8a2.337,2.337,0,0,0-2.337,2.337V25.86H6.75V23.522a3.272,3.272,0,0,1,3.272-3.272h2.8A3.272,3.272,0,0,1,16.1,23.522Z"
        transform="translate(-6.75 -12.77)" />
</svg>
