<svg id="video-Regular" xmlns="http://www.w3.org/2000/svg" width="24" height="24"
    viewBox="0 0 24 24">
    <rect id="Path" width="24" height="24" fill="rgba(255,255,255,0)" />
    <path id="video-Regular_1_"
        d="M559.722,1377.52a1.949,1.949,0,0,0-2,.094l-3.01,2a4.741,4.741,0,0,0-4.711-4.365h-4a4.756,4.756,0,0,0-4.75,4.75v4a4.756,4.756,0,0,0,4.75,4.75h4a4.741,4.741,0,0,0,4.711-4.365l3.01,2a1.95,1.95,0,0,0,3.029-1.624v-5.523A1.946,1.946,0,0,0,559.722,1377.52ZM553.25,1384a3.254,3.254,0,0,1-3.25,3.25h-4a3.254,3.254,0,0,1-3.25-3.25v-4a3.254,3.254,0,0,1,3.25-3.25h4a3.254,3.254,0,0,1,3.25,3.25Zm6,.761a.45.45,0,0,1-.7.375l-3.8-2.526v-1.221l3.8-2.526a.45.45,0,0,1,.7.374Z"
        transform="translate(-539 -1370)" fill="#41416e" />
</svg>
